<svg width="21" height="21" viewBox="0 0 21 21" fill="none" xmlns="http://www.w3.org/2000/svg">
<g clip-path="url(#clip0_6_28209)">
<path fill-rule="evenodd" clip-rule="evenodd" d="M20.0999 10.7275C20.0999 10.0184 20.0363 9.33662 19.9181 8.68206H10.5V12.5502H15.8818C15.6499 13.8002 14.9454 14.8593 13.8863 15.5684V18.0775H17.1181C19.009 16.3366 20.0999 13.7729 20.0999 10.7275Z" fill="#4285F4"/>
<path fill-rule="evenodd" clip-rule="evenodd" d="M10.5008 20.4997C13.2008 20.4997 15.4644 19.6042 17.1189 18.077L13.8871 15.5679C12.9916 16.1679 11.8462 16.5224 10.5008 16.5224C7.89625 16.5224 5.6917 14.7634 4.90534 12.3997H1.56445V14.9906C3.2099 18.2588 6.5917 20.4997 10.5008 20.4997Z" fill="#34A853"/>
<path fill-rule="evenodd" clip-rule="evenodd" d="M4.90451 12.3999C4.70452 11.7999 4.59088 11.159 4.59088 10.4999C4.59088 9.84081 4.70452 9.19994 4.90451 8.59994V6.00905H1.56363C0.886361 7.35906 0.5 8.88631 0.5 10.4999C0.5 12.1136 0.886361 13.6408 1.56363 14.9908L4.90451 12.3999Z" fill="#FBBC05"/>
<path fill-rule="evenodd" clip-rule="evenodd" d="M10.5008 4.47724C11.9689 4.47724 13.2871 4.98179 14.3234 5.97269L17.1916 3.10453C15.4598 1.4909 13.1962 0.5 10.5008 0.5C6.59169 0.5 3.2099 2.74089 1.56445 6.00905L4.90534 8.59994C5.6917 6.23632 7.89625 4.47724 10.5008 4.47724Z" fill="#EA4335"/>
</g>
<defs>
<clipPath id="clip0_6_28209">
<rect width="20" height="20" fill="white" transform="translate(0.5 0.5)"/>
</clipPath>
</defs>
</svg>
