<svg width="28" height="28" viewBox="0 0 28 28" fill="none" xmlns="http://www.w3.org/2000/svg">
<rect width="28" height="28" rx="14" fill="white" fill-opacity="0.06"/>
<rect x="0.5" y="0.5" width="27" height="27" rx="13.5" stroke="white" stroke-opacity="0.04"/>
<path d="M9.34766 18.4277C9.76368 18.8379 10.4844 18.8203 10.8652 18.4395L14 15.3047L17.1231 18.4336C17.5273 18.8379 18.2246 18.8379 18.6348 18.4219C19.0508 18.0059 19.0566 17.3086 18.6523 16.9043L15.5293 13.7754L18.6523 10.6523C19.0566 10.248 19.0508 9.55078 18.6348 9.14063C18.2188 8.72461 17.5273 8.71875 17.1231 9.12305L14 12.2461L10.8652 9.11719C10.4844 8.73633 9.76368 8.71875 9.34766 9.13477C8.9375 9.55078 8.94922 10.2656 9.33594 10.6465L12.4707 13.7754L9.33594 16.9102C8.94922 17.291 8.93164 18.0117 9.34766 18.4277Z" fill="#E0E8FF" fill-opacity="0.6"/>
</svg>
