<svg width="33" height="34" viewBox="0 0 33 34" fill="none" xmlns="http://www.w3.org/2000/svg">
<g clip-path="url(#clip0_50_51)">
<path d="M0.25 3.01744C0.25 1.76517 1.26517 0.75 2.51744 0.75H16.5H30.4826C31.7348 0.75 32.75 1.76517 32.75 3.01744V30.9826C32.75 32.2348 31.7348 33.25 30.4826 33.25H2.51744C1.26517 33.25 0.25 32.2348 0.25 30.9826V3.01744Z" fill="#121212"/>
<path d="M13.7099 9.95562C13.0618 10.1501 11.8509 9.0938 10.9983 8.19445C10.7936 7.97863 10.3878 8.11982 10.3438 8.41394C10.1884 9.45112 9.74523 10.7859 8.72151 11.3172C7.70553 11.8445 6.4254 11.2342 5.53595 10.5813C5.28866 10.3997 4.8773 10.6098 4.8921 10.9162C4.94484 12.0074 4.85282 13.4107 4.26755 14.0403C3.67105 14.682 2.31463 14.5505 1.28153 14.2962C0.992158 14.225 0.709741 14.5577 0.826715 14.8317C1.20083 15.7084 1.57304 16.9601 1.41701 18.0371C1.26384 19.0944 -0.0111917 19.4934 -1.15326 19.6023C-1.47928 19.6334 -1.66681 20.1648 -1.43896 20.4C-0.807799 21.0517 -0.24198 21.9432 -0.453651 22.8245C-0.675298 23.7473 -1.59058 24.4156 -2.41419 24.8177C-2.69704 24.9558 -2.706 25.4609 -2.42548 25.6036C-1.48505 26.0822 -0.453651 26.8628 -0.453651 27.8315C-0.453651 28.9788 -2.66826 29.7543 -4.24286 30.1077C-4.51298 30.1683 -4.60526 30.5287 -4.4001 30.7146C-3.511 31.5202 -2.36885 32.8032 -2.36885 33.8047C-2.36885 34.7905 -3.87614 35.7669 -5.07836 36.3493C-5.34664 36.4793 -5.33753 36.9048 -5.06537 37.0265C-3.93123 37.5334 -2.50925 38.4183 -2.36885 39.4705C-2.23533 40.4712 -3.22755 41.6166 -4.12685 42.3927C-4.36454 42.5978 -4.22458 43.0538 -3.91249 43.088C-2.48161 43.245 -0.678072 43.7435 -0.453651 44.9607C-0.288973 45.8538 -0.56232 46.6629 -0.928465 47.2745C-1.09885 47.5591 -0.806304 48.1107 -0.475246 48.0899C0.792885 48.0099 2.35194 48.1579 3.02044 49.0453C3.72095 49.9752 3.83745 51.3488 3.782 52.3305C3.76573 52.6185 4.1179 52.8417 4.37258 52.7061C5.4265 52.1449 7.00168 51.6779 8.05341 52.6029C8.88399 53.3334 9.27497 54.2649 9.43575 55.0263C9.50158 55.3381 10.0246 55.5207 10.2526 55.2982C11.1781 54.3952 12.5489 53.4931 13.7099 54.0523C14.888 54.6196 15.7026 55.7945 16.1378 56.6666C16.2624 56.9165 16.6502 56.9442 16.8004 56.7087C17.4955 55.619 18.6992 54.1679 19.9009 54.0523C21.0844 53.9385 22.3867 54.8737 23.178 55.63C23.3722 55.8156 23.7184 55.7198 23.7818 55.4588C24.0861 54.2062 24.7216 52.4434 25.6466 52.1198C26.4833 51.827 27.867 52.2718 28.8761 52.7212C29.1521 52.8441 29.5065 52.5427 29.4572 52.2447C29.3082 51.3441 29.3581 50.0966 30.1451 49.0453C31.0051 47.8962 32.6231 48.0839 33.8089 48.3892C34.1012 48.4644 34.39 48.1118 34.2771 47.832C33.8853 46.8611 33.5618 45.4494 33.9309 44.5654C34.3191 43.6357 35.8832 43.2309 37.1037 43.0902C37.4046 43.0555 37.5438 42.6348 37.323 42.4274C36.4965 41.651 35.5343 40.4862 35.5343 39.4705C35.5343 38.4586 36.8307 37.6013 37.9495 37.0863C38.2348 36.9549 38.228 36.4715 37.9409 36.3439C36.824 35.8477 35.5343 34.9735 35.5343 33.8047C35.5343 32.6345 36.487 31.5079 37.3107 30.7944C37.5377 30.5978 37.4305 30.1686 37.1365 30.1071C35.7685 29.8208 34.0171 29.1344 33.9309 27.8315C33.8584 26.735 34.6427 26.0077 35.4328 25.5894C35.7154 25.4397 35.7317 24.9083 35.444 24.7686C34.4925 24.3066 33.4346 23.6021 33.3074 22.8245C33.1679 21.9717 34.1114 20.8658 34.9194 20.1308C35.1324 19.9371 35.0262 19.5505 34.7435 19.4963C33.6097 19.2789 32.0943 18.8157 31.6149 18.0371C31.1437 17.2718 31.5583 15.9962 32.0033 15.0951C32.1281 14.8426 31.9058 14.5216 31.626 14.5545C30.532 14.6831 28.9922 14.6807 28.2299 14.0403C27.5788 13.4933 27.6254 12.4328 27.8477 11.5365C27.9257 11.2223 27.5091 10.8711 27.2145 11.0054C26.3138 11.416 25.1459 11.727 24.2658 11.3172C23.3206 10.877 22.9139 9.58295 22.7712 8.52828C22.7298 8.22173 22.2811 8.07271 22.0695 8.29831C21.3354 9.0808 20.2674 9.95562 19.3219 9.95562C18.2474 9.95562 17.2437 8.45577 16.6931 7.34063C16.5761 7.10353 16.2305 7.07946 16.0884 7.30248C15.4345 8.32915 14.3935 9.75047 13.7099 9.95562Z" fill="white"/>
<path fill-rule="evenodd" clip-rule="evenodd" d="M16.3686 7.7114C16.0517 8.19839 15.6597 8.75488 15.2602 9.23086C15.038 9.49568 14.8066 9.74384 14.5786 9.94302C14.3585 10.1352 14.1061 10.3138 13.8413 10.3933C13.5365 10.4847 13.2238 10.4158 12.9655 10.3142C12.6986 10.2092 12.4253 10.0439 12.1642 9.85635C11.6826 9.5104 11.1885 9.04945 10.7735 8.62034C10.686 9.1366 10.5299 9.72012 10.269 10.2555C9.98517 10.8378 9.56046 11.3965 8.93196 11.7227C8.28173 12.0602 7.57471 12.0178 6.9494 11.8293C6.36286 11.6525 5.80763 11.3363 5.35359 11.0132C5.374 11.5494 5.35978 12.1577 5.27034 12.7228C5.17682 13.3136 4.9898 13.9344 4.60217 14.3514C4.1775 14.8082 3.534 14.9443 2.95135 14.961C2.39725 14.9769 1.80713 14.8876 1.29593 14.7694C1.66441 15.6652 2.03621 16.9496 1.86917 18.1026C1.76399 18.8287 1.26983 19.2966 0.710537 19.5823C0.172105 19.8573 -0.475725 19.9928 -1.06188 20.0525C-1.06594 20.0596 -1.06996 20.0682 -1.07341 20.0779C-1.07763 20.0898 -1.08028 20.1012 -1.08157 20.1112C-1.08162 20.1116 -1.08167 20.112 -1.08172 20.1124C-0.754321 20.455 -0.432297 20.871 -0.216409 21.3326C0.00664572 21.8094 0.127615 22.3607 -0.00941072 22.9312C-0.147992 23.5082 -0.496822 23.9806 -0.897867 24.3517C-1.28753 24.7123 -1.74684 24.9967 -2.17388 25.2087C-2.1741 25.211 -2.17424 25.2135 -2.17428 25.2161C-2.1743 25.2171 -2.1743 25.2181 -2.17428 25.219C-1.69238 25.4681 -1.17287 25.801 -0.763566 26.211C-0.3447 26.6306 0.00322315 27.1774 0.00322315 27.8315C0.00322315 28.2764 -0.213578 28.6479 -0.496239 28.9395C-0.777325 29.2295 -1.15233 29.4721 -1.55077 29.6747C-2.2864 30.0486 -3.18335 30.3261 -3.94921 30.5087C-3.52603 30.9046 -3.05913 31.3972 -2.68129 31.9179C-2.27247 32.4813 -1.91198 33.1525 -1.91198 33.8048C-1.91198 34.5184 -2.43988 35.1281 -2.97995 35.579C-3.49886 36.0123 -4.1409 36.3913 -4.71998 36.682C-4.17172 36.938 -3.56427 37.2789 -3.05726 37.6887C-2.51454 38.1274 -2.00979 38.7072 -1.91599 39.4101C-1.82719 40.0757 -2.11506 40.729 -2.48207 41.2718C-2.82944 41.7855 -3.2892 42.2618 -3.7267 42.6497C-3.01964 42.7363 -2.2185 42.9059 -1.54297 43.2103C-0.837152 43.5283 -0.15757 44.0468 -0.00435029 44.8778C0.184219 45.9006 -0.125489 46.8127 -0.521098 47.4834C-0.518722 47.5058 -0.509117 47.5408 -0.488832 47.5779C-0.475768 47.6019 -0.462379 47.6193 -0.451821 47.6308C0.193937 47.5934 0.925188 47.6123 1.59488 47.7585C2.27438 47.9068 2.9563 48.2009 3.38535 48.7704C4.16126 49.8004 4.28753 51.2511 4.24308 52.2582C4.78723 51.978 5.46695 51.7187 6.16453 51.643C6.9042 51.5627 7.70376 51.687 8.35514 52.2599C9.26787 53.0626 9.69736 54.0781 9.87641 54.9023C9.88049 54.9054 9.88586 54.9091 9.8926 54.9131C9.90358 54.9194 9.91637 54.9253 9.9301 54.93C9.94368 54.9346 9.95635 54.9374 9.96703 54.9387C10.4456 54.4769 11.0511 54.0014 11.7072 53.7095C12.3797 53.4103 13.1623 53.2815 13.9082 53.6407C15.1666 54.2468 16.0212 55.4506 16.4888 56.3493C16.8414 55.8107 17.3102 55.1952 17.8452 54.6847C18.4067 54.1489 19.1017 53.6702 19.8572 53.5976C20.5784 53.5282 21.2954 53.7791 21.9063 54.1143C22.4676 54.4224 22.9778 54.8226 23.3778 55.191C23.5347 54.5792 23.7658 53.863 24.0712 53.2399C24.2374 52.9007 24.4321 52.5756 24.6586 52.3073C24.8831 52.0412 25.1599 51.8061 25.4956 51.6886C26.0385 51.4986 26.6981 51.5606 27.2977 51.6966C27.8888 51.8307 28.4912 52.0533 28.9995 52.2762C28.8473 51.3082 28.9037 49.9413 29.7793 48.7716C30.3102 48.0622 31.0692 47.7829 31.8144 47.7168C32.5105 47.6551 33.2274 47.7747 33.8209 47.921C33.6268 47.424 33.4515 46.8259 33.3664 46.2309C33.278 45.6138 33.2781 44.943 33.5093 44.3894C33.7764 43.7498 34.4117 43.3554 35.0366 43.1073C35.629 42.8722 36.3031 42.7325 36.8995 42.6549C36.5012 42.2698 36.0765 41.7985 35.7387 41.2924C35.3758 40.7486 35.0774 40.1119 35.0774 39.4706C35.0774 38.7652 35.5242 38.1826 36.0218 37.748C36.5024 37.3282 37.1052 36.9801 37.6588 36.7178C37.1007 36.4616 36.4929 36.1093 36.0088 35.6622C35.4993 35.1916 35.0774 34.5682 35.0774 33.8048C35.0774 33.0975 35.3636 32.4355 35.7323 31.8767C36.0774 31.3535 36.5137 30.892 36.9217 30.5281C36.24 30.3765 35.4607 30.1264 34.8187 29.7428C34.1461 29.3409 33.5327 28.7335 33.475 27.8617C33.3854 26.5067 34.3523 25.6522 35.1903 25.2009C35.1908 25.1992 35.1913 25.1974 35.1918 25.1954C35.1939 25.1866 35.1952 25.1765 35.1954 25.166C35.1955 25.1623 35.1954 25.1589 35.1953 25.1556C34.7154 24.9194 34.1985 24.6179 33.7749 24.2667C33.3508 23.915 32.9473 23.4539 32.8565 22.8983C32.7573 22.2921 33.0444 21.6759 33.3789 21.1785C33.6915 20.7138 34.1006 20.2721 34.4847 19.9106C33.9388 19.7978 33.3179 19.6307 32.759 19.3993C32.1602 19.1515 31.545 18.7951 31.2258 18.2767C30.9013 17.7496 30.9083 17.1005 31.0167 16.5316C31.1174 16.0028 31.3191 15.4714 31.5299 15.0247C30.9921 15.0802 30.3602 15.1034 29.756 15.0402C29.1088 14.9724 28.4223 14.7987 27.936 14.3901C27.4868 14.0129 27.305 13.4786 27.2563 12.9622C27.2093 12.4622 27.2816 11.9349 27.3938 11.4694C27.3921 11.4674 27.3902 11.4653 27.3882 11.4631C27.3847 11.4595 27.3809 11.456 27.3769 11.4526C27.3728 11.4492 27.3687 11.4461 27.3647 11.4434C27.3633 11.4424 27.362 11.4416 27.3607 11.4408C26.895 11.6496 26.3526 11.8372 25.8008 11.9207C25.2342 12.0064 24.6227 11.9874 24.0729 11.7314C23.4653 11.4484 23.0652 10.9084 22.8033 10.3461C22.5549 9.81256 22.4106 9.21687 22.332 8.68547C21.9626 9.07122 21.512 9.4796 21.0276 9.80112C20.5203 10.1377 19.9262 10.4125 19.3219 10.4125C18.578 10.4125 17.9419 9.90497 17.4685 9.3687C17.0249 8.86617 16.6476 8.25167 16.3686 7.7114ZM-0.521596 47.4707C-0.521574 47.4707 -0.521587 47.4711 -0.521699 47.472C-0.521672 47.4711 -0.521618 47.4707 -0.521596 47.4707ZM15.7031 7.05705C16.0438 6.5221 16.8342 6.59444 17.1028 7.13839C17.3682 7.67583 17.7359 8.29086 18.1536 8.76397C18.5883 9.25641 18.9913 9.49876 19.3219 9.49876C19.6631 9.49876 20.0757 9.33616 20.5223 9.03975C20.9604 8.74902 21.3841 8.36113 21.7362 7.98575L22.0694 8.29835L21.7362 7.98574C21.9974 7.70732 22.367 7.69415 22.6271 7.77983C22.887 7.86545 23.1735 8.09386 23.224 8.46708C23.2916 8.9669 23.4199 9.50545 23.6317 9.96032C23.8452 10.4187 24.1211 10.7458 24.4587 10.903C24.7889 11.0568 25.2015 11.0872 25.6641 11.0172C26.1241 10.9476 26.5995 10.7837 27.025 10.5897C27.3924 10.4222 27.7574 10.5788 27.9648 10.753C28.1723 10.9275 28.3876 11.2582 28.2912 11.6466C28.1869 12.067 28.1307 12.501 28.1661 12.8766C28.2014 13.2513 28.3218 13.5208 28.5237 13.6905L28.2298 14.0403L28.5237 13.6905C28.7997 13.9223 29.2643 14.0699 29.8511 14.1314C30.424 14.1913 31.0467 14.1626 31.5727 14.1007C31.9104 14.061 32.189 14.2378 32.3414 14.4568C32.4935 14.6755 32.5619 14.9959 32.4129 15.2975C32.201 15.7266 32.0043 16.23 31.9143 16.7025C31.8219 17.1879 31.8572 17.5593 32.0039 17.7976C32.1641 18.0578 32.5463 18.3223 33.1085 18.5551C33.6506 18.7795 34.2805 18.9424 34.8295 19.0476C35.1724 19.1134 35.3851 19.377 35.4577 19.6396C35.5302 19.9018 35.4832 20.2356 35.2269 20.4688C34.8378 20.8227 34.4286 21.2551 34.1372 21.6885C33.8329 22.1409 33.7179 22.5041 33.7583 22.7508C33.7946 22.9728 33.9837 23.2528 34.3582 23.5632C34.7187 23.8622 35.1856 24.1353 35.6435 24.3576C36.0083 24.5347 36.1145 24.916 36.109 25.1845C36.1035 25.4545 35.9841 25.8145 35.6466 25.9932C34.9108 26.3828 34.3324 26.9787 34.3868 27.8014C34.4153 28.2324 34.7207 28.6197 35.2874 28.9584C35.8462 29.2923 36.5712 29.522 37.2301 29.6599C37.5893 29.735 37.7955 30.0244 37.862 30.2885C37.9285 30.5523 37.8842 30.9022 37.6098 31.1398C37.2191 31.4783 36.8066 31.9076 36.495 32.3799C36.1814 32.8554 35.9912 33.3418 35.9912 33.8048C35.9912 34.2101 36.2142 34.6081 36.6288 34.9909C37.0406 35.3712 37.5932 35.6895 38.1264 35.9264C38.4782 36.0827 38.6132 36.4315 38.6167 36.7079C38.6202 36.9844 38.4935 37.3388 38.1406 37.5013C37.6018 37.7494 37.0411 38.0709 36.6229 38.4362C36.1926 38.812 35.9912 39.1639 35.9912 39.4706C35.9912 39.8449 36.174 40.2985 36.4988 40.7851C36.8172 41.2622 37.2383 41.721 37.6358 42.0944C37.9053 42.3475 37.9295 42.7048 37.8427 42.9671C37.7559 43.2294 37.5233 43.5017 37.156 43.5441C36.5674 43.612 35.9147 43.7419 35.3737 43.9566C34.8145 44.1786 34.4736 44.4514 34.3525 44.7414C34.2145 45.0719 34.1918 45.549 34.2709 46.1014C34.3484 46.6429 34.5158 47.2027 34.7008 47.661C34.8359 47.9959 34.7185 48.3289 34.5461 48.536C34.3734 48.7435 34.0593 48.9255 33.695 48.8317C33.1213 48.684 32.4792 48.5752 31.8952 48.627C31.32 48.678 30.8399 48.8795 30.5108 49.3191C29.8256 50.2346 29.7704 51.3393 29.908 52.1701C29.9661 52.5217 29.7854 52.822 29.5807 52.9921C29.376 53.1623 29.0352 53.2922 28.6902 53.1386C28.2021 52.9212 27.6335 52.7098 27.0956 52.5878C26.542 52.4622 26.0914 52.4482 25.7974 52.5511C25.6707 52.5954 25.5212 52.7019 25.3569 52.8966C25.1946 53.089 25.038 53.3436 24.8917 53.642C24.599 54.2392 24.3736 54.9583 24.2258 55.5667C24.0762 56.1824 23.3014 56.3799 22.8624 55.9603C22.4861 55.6007 21.9945 55.205 21.4667 54.9154C20.9328 54.6224 20.4069 54.4627 19.9447 54.5071C19.4985 54.5501 18.9906 54.8548 18.4761 55.3458C17.9731 55.8258 17.5209 56.4288 17.1856 56.9545C17.0035 57.24 16.6923 57.3431 16.4292 57.3256C16.1669 57.3082 15.8766 57.1666 15.7289 56.8706C15.3117 56.0345 14.5555 54.9667 13.5117 54.464C13.0965 54.264 12.6131 54.3066 12.0786 54.5444C11.5431 54.7827 11.0135 55.1942 10.5717 55.6252C10.2834 55.9065 9.88569 55.8798 9.6366 55.7953C9.38535 55.7101 9.06768 55.4948 8.98871 55.1208C8.84228 54.4274 8.48908 53.5946 7.75166 52.946C7.3513 52.5939 6.83741 52.4891 6.26308 52.5514C5.68358 52.6143 5.08374 52.8451 4.58731 53.1094C4.28266 53.2716 3.95376 53.2046 3.7307 53.0629C3.50755 52.9211 3.30626 52.6511 3.32583 52.3047C3.37972 51.3505 3.25506 50.1161 2.6555 49.3203C2.41605 49.0024 1.9842 48.7788 1.4 48.6513C0.824118 48.5255 0.163247 48.5074 -0.446529 48.5459C-0.877032 48.573 -1.16504 48.2464 -1.29099 48.0156C-1.4196 47.7799 -1.52581 47.3828 -1.32049 47.0399C-0.991094 46.4897 -0.764628 45.7939 -0.90298 45.0435C-0.974181 44.6574 -1.30858 44.3181 -1.91835 44.0434C-2.51471 43.7747 -3.2703 43.6182 -3.96233 43.5422C-4.34777 43.4999 -4.5805 43.2054 -4.66253 42.9389C-4.74453 42.6724 -4.71768 42.2991 -4.42538 42.0468C-3.993 41.6737 -3.5522 41.2231 -3.23905 40.7599C-2.9185 40.2858 -2.77703 39.8661 -2.82174 39.531C-2.86834 39.1817 -3.14478 38.793 -3.63168 38.3994C-4.10473 38.017 -4.70518 37.688 -5.25184 37.4436C-5.58155 37.2962 -5.7258 36.9767 -5.73134 36.7002C-5.73689 36.4233 -5.60495 36.0968 -5.27756 35.9382C-4.69359 35.6553 -4.05284 35.2844 -3.56562 34.8776C-3.0515 34.4483 -2.82576 34.0769 -2.82576 33.8048C-2.82576 33.4555 -3.03634 32.9845 -3.42087 32.4546C-3.7929 31.9419 -4.27647 31.4432 -4.70689 31.0532C-5.18134 30.6233 -4.98107 29.8052 -4.34293 29.662C-3.57306 29.4892 -2.66717 29.2171 -1.96482 28.8601C-1.61278 28.6811 -1.33572 28.4927 -1.15236 28.3035C-0.970579 28.116 -0.910554 27.9603 -0.910554 27.8315C-0.910554 27.517 -1.07833 27.1891 -1.41027 26.8566C-1.73928 26.527 -2.18638 26.238 -2.63272 26.0108C-2.97938 25.8344 -3.09219 25.4721 -3.08795 25.2018C-3.0837 24.9313 -2.96011 24.5758 -2.61465 24.4071L-2.4142 24.8177L-2.61464 24.4071C-2.22922 24.219 -1.83566 23.9746 -1.51853 23.6811C-1.20062 23.3869 -0.980985 23.0637 -0.89792 22.7178C-0.823274 22.407 -0.879379 22.0719 -1.04411 21.7197C-1.20961 21.3659 -1.47332 21.0213 -1.76716 20.7179C-2.04854 20.4274 -2.02524 20.0269 -1.93424 19.7714C-1.84346 19.5165 -1.60627 19.1866 -1.19666 19.1476C-0.653196 19.0957 -0.113293 18.977 0.294857 18.7685C0.696891 18.5632 0.916834 18.3029 0.96483 17.9716C1.10243 17.0218 0.771291 15.8659 0.406481 15.0111C0.264365 14.6781 0.377711 14.3458 0.553457 14.1388C0.729215 13.9318 1.03893 13.766 1.39073 13.8526C1.88565 13.9744 2.43891 14.0615 2.92516 14.0476C3.42812 14.0332 3.76107 13.9141 3.9329 13.7292C4.13054 13.5166 4.28217 13.1209 4.36779 12.5799C4.45081 12.0555 4.46121 11.4655 4.43574 10.9383C4.4174 10.5589 4.66234 10.2857 4.90604 10.1599C5.14934 10.0342 5.50777 9.99382 5.80632 10.213C6.22641 10.5214 6.72174 10.8063 7.21313 10.9544C7.70425 11.1025 8.14527 11.1015 8.51102 10.9117C8.90625 10.7066 9.215 10.3323 9.44757 9.85512C9.67937 9.3795 9.81876 8.83475 9.8919 8.34631C9.94442 7.99558 10.2053 7.76832 10.4636 7.68045C10.7231 7.5922 11.0768 7.6133 11.3298 7.88013C11.747 8.32018 12.2404 8.78595 12.6973 9.11419C12.9266 9.27884 13.1308 9.39732 13.2999 9.46382C13.4776 9.53368 13.5592 9.52386 13.5786 9.51805C13.6555 9.49495 13.7896 9.41889 13.9774 9.25483C14.1572 9.09774 14.3551 8.88794 14.5603 8.64344C14.9702 8.15501 15.382 7.56108 15.7031 7.05705L16.0884 7.30251L16.0906 7.30392M15.7031 7.05705L16.0884 7.30251Z" fill="#151923"/>
<path fill-rule="evenodd" clip-rule="evenodd" d="M24.8357 15.9348V16.8768H25.8959V15.599C25.8959 14.9756 25.246 14.5652 24.6831 14.8332L22.6437 15.8044L23.0995 16.7616L24.8357 15.9348ZM23.6022 23.5012C23.7151 24.4048 23.2738 25.2037 22.6167 25.2858C21.9596 25.3679 21.3354 24.7019 21.2226 23.7984C21.1098 22.8949 21.551 22.0959 22.2081 22.0138C22.8652 21.9317 23.4894 22.5977 23.6022 23.5012ZM12.8975 23.8103C12.9547 24.7191 12.4653 25.4895 11.8044 25.5311C11.1434 25.5727 10.5613 24.8698 10.5041 23.961C10.4469 23.0522 10.9363 22.2818 11.5972 22.2402C12.2581 22.1986 12.8403 22.9016 12.8975 23.8103ZM17.471 25.08C17.8398 25.066 18.1407 25.1647 18.3279 25.2902C18.5161 25.4164 18.5346 25.5222 18.5357 25.5513C18.5368 25.5805 18.5264 25.6874 18.3484 25.8275C18.1712 25.9669 17.8787 26.0882 17.5099 26.1022C17.1412 26.1162 16.8402 26.0175 16.653 25.892C16.4649 25.7658 16.4464 25.66 16.4453 25.6309C16.4441 25.6017 16.4546 25.4948 16.6326 25.3547C16.8097 25.2153 17.1023 25.094 17.471 25.08ZM17.4363 24.1669C18.5178 24.1257 19.4189 24.73 19.4488 25.5166C19.4704 26.0856 19.0303 26.5941 18.3758 26.8475C18.4038 26.9785 18.4498 27.1407 18.5187 27.3131C18.6485 27.6377 18.8317 27.9268 19.0509 28.0938C19.2809 28.2691 19.5811 28.2435 20.0095 27.9792C20.3465 27.7715 20.638 27.491 20.8558 27.2814C20.9094 27.2298 20.9586 27.1825 21.0028 27.1416C21.1882 26.9705 21.4773 26.982 21.6484 27.1675C21.8196 27.3529 21.808 27.6419 21.6226 27.8131C21.5957 27.838 21.5607 27.8718 21.5187 27.9125C21.3083 28.1162 20.9219 28.4902 20.4891 28.7571C19.9786 29.0719 19.2024 29.358 18.4971 28.8207C18.1736 28.5742 17.9412 28.2307 17.7794 27.899C17.6709 28.2267 17.5056 28.5781 17.256 28.8813C16.7987 29.4365 16.0746 29.5187 15.5213 29.463C15.2318 29.4338 14.9523 29.3646 14.7141 29.2757C14.4852 29.1902 14.2577 29.0729 14.0991 28.9265C13.9137 28.7554 13.9022 28.4663 14.0733 28.2809C14.2445 28.0955 14.5335 28.0839 14.7189 28.2551C14.7534 28.2869 14.8562 28.3533 15.0337 28.4196C15.202 28.4824 15.405 28.5329 15.6129 28.5538C16.0543 28.5983 16.3843 28.5023 16.5506 28.3004C16.7448 28.0645 16.8777 27.7564 16.9611 27.4482C17.0065 27.2803 17.0348 27.1217 17.0511 26.9888C16.2016 26.8622 15.5574 26.3286 15.5321 25.6656C15.5022 24.879 16.3547 24.208 17.4363 24.1669ZM9.47602 17.4299L7.84465 16.5284L7.84464 18.5248L6.78444 18.5248L6.78444 16.1689C6.78444 15.523 7.47755 15.1142 8.04285 15.4266L9.98882 16.502L9.47602 17.4299Z" fill="#151923"/>
</g>
<defs>
<clipPath id="clip0_50_51">
<rect x="0.25" y="0.75" width="32.5" height="32.5" rx="4.92188" fill="white"/>
</clipPath>
</defs>
</svg>
