<svg width="28" height="28" viewBox="0 0 28 28" fill="none" xmlns="http://www.w3.org/2000/svg">
<rect width="28" height="28" rx="6" fill="white"/>
<path d="M24.0891 3.1199L15.3446 9.61456L16.9617 5.7828L24.0891 3.1199Z" fill="#E2761B" stroke="#E2761B" stroke-width="0.0878845" stroke-linecap="round" stroke-linejoin="round"/>
<path d="M3.90198 3.11989L12.5762 9.67607L11.0382 5.78279L3.90198 3.11989Z" fill="#E4761B" stroke="#E4761B" stroke-width="0.0878845" stroke-linecap="round" stroke-linejoin="round"/>
<path d="M20.9428 18.1745L18.6139 21.7426L23.5969 23.1136L25.0295 18.2536L20.9428 18.1745Z" fill="#E4761B" stroke="#E4761B" stroke-width="0.0878845" stroke-linecap="round" stroke-linejoin="round"/>
<path d="M2.97925 18.2536L4.40298 23.1136L9.38603 21.7426L7.05709 18.1745L2.97925 18.2536Z" fill="#E4761B" stroke="#E4761B" stroke-width="0.0878845" stroke-linecap="round" stroke-linejoin="round"/>
<path d="M9.10476 12.1456L7.71619 14.2461L12.6641 14.4658L12.4883 9.14877L9.10476 12.1456Z" fill="#E4761B" stroke="#E4761B" stroke-width="0.0878845" stroke-linecap="round" stroke-linejoin="round"/>
<path d="M18.8863 12.1456L15.4589 9.08725L15.3446 14.4658L20.2837 14.2461L18.8863 12.1456Z" fill="#E4761B" stroke="#E4761B" stroke-width="0.0878845" stroke-linecap="round" stroke-linejoin="round"/>
<path d="M9.38599 21.7426L12.3565 20.2925L9.79025 18.2888L9.38599 21.7426Z" fill="#E4761B" stroke="#E4761B" stroke-width="0.0878845" stroke-linecap="round" stroke-linejoin="round"/>
<path d="M15.6346 20.2925L18.6139 21.7426L18.2009 18.2888L15.6346 20.2925Z" fill="#E4761B" stroke="#E4761B" stroke-width="0.0878845" stroke-linecap="round" stroke-linejoin="round"/>
<path d="M18.6139 21.7426L15.6346 20.2925L15.8719 22.2348L15.8456 23.0521L18.6139 21.7426Z" fill="#D7C1B3" stroke="#D7C1B3" stroke-width="0.0878845" stroke-linecap="round" stroke-linejoin="round"/>
<path d="M9.38611 21.7426L12.1545 23.0521L12.1369 22.2348L12.3566 20.2925L9.38611 21.7426Z" fill="#D7C1B3" stroke="#D7C1B3" stroke-width="0.0878845" stroke-linecap="round" stroke-linejoin="round"/>
<path d="M12.1983 17.0056L9.71997 16.2762L11.4689 15.4765L12.1983 17.0056Z" fill="#233447" stroke="#233447" stroke-width="0.0878845" stroke-linecap="round" stroke-linejoin="round"/>
<path d="M15.7928 17.0056L16.5223 15.4765L18.28 16.2762L15.7928 17.0056Z" fill="#233447" stroke="#233447" stroke-width="0.0878845" stroke-linecap="round" stroke-linejoin="round"/>
<path d="M9.38607 21.7426L9.80791 18.1745L7.05713 18.2536L9.38607 21.7426Z" fill="#CD6116" stroke="#CD6116" stroke-width="0.0878845" stroke-linecap="round" stroke-linejoin="round"/>
<path d="M18.1921 18.1745L18.614 21.7426L20.9429 18.2536L18.1921 18.1745Z" fill="#CD6116" stroke="#CD6116" stroke-width="0.0878845" stroke-linecap="round" stroke-linejoin="round"/>
<path d="M20.2837 14.2461L15.3446 14.4658L15.8016 17.0057L16.531 15.4765L18.2887 16.2762L20.2837 14.2461Z" fill="#CD6116" stroke="#CD6116" stroke-width="0.0878845" stroke-linecap="round" stroke-linejoin="round"/>
<path d="M9.72007 16.2762L11.4778 15.4765L12.1984 17.0057L12.6642 14.4658L7.71631 14.2461L9.72007 16.2762Z" fill="#CD6116" stroke="#CD6116" stroke-width="0.0878845" stroke-linecap="round" stroke-linejoin="round"/>
<path d="M7.71631 14.2461L9.79038 18.2888L9.72007 16.2762L7.71631 14.2461Z" fill="#E4751F" stroke="#E4751F" stroke-width="0.0878845" stroke-linecap="round" stroke-linejoin="round"/>
<path d="M18.2888 16.2762L18.2009 18.2888L20.2838 14.2461L18.2888 16.2762Z" fill="#E4751F" stroke="#E4751F" stroke-width="0.0878845" stroke-linecap="round" stroke-linejoin="round"/>
<path d="M12.6642 14.4658L12.1984 17.0057L12.7784 20.0025L12.9102 16.0565L12.6642 14.4658Z" fill="#E4751F" stroke="#E4751F" stroke-width="0.0878845" stroke-linecap="round" stroke-linejoin="round"/>
<path d="M15.3447 14.4658L15.1074 16.0477L15.2129 20.0025L15.8017 17.0057L15.3447 14.4658Z" fill="#E4751F" stroke="#E4751F" stroke-width="0.0878845" stroke-linecap="round" stroke-linejoin="round"/>
<path d="M15.8016 17.0056L15.2128 20.0025L15.6346 20.2925L18.2008 18.2888L18.2887 16.2762L15.8016 17.0056Z" fill="#F6851B" stroke="#F6851B" stroke-width="0.0878845" stroke-linecap="round" stroke-linejoin="round"/>
<path d="M9.71997 16.2762L9.79028 18.2888L12.3565 20.2925L12.7784 20.0025L12.1983 17.0056L9.71997 16.2762Z" fill="#F6851B" stroke="#F6851B" stroke-width="0.0878845" stroke-linecap="round" stroke-linejoin="round"/>
<path d="M15.8456 23.0521L15.872 22.2348L15.6523 22.0414H12.339L12.1369 22.2348L12.1545 23.0521L9.38611 21.7426L10.3528 22.5336L12.3127 23.8958H15.6786L17.6473 22.5336L18.614 21.7426L15.8456 23.0521Z" fill="#C0AD9E" stroke="#C0AD9E" stroke-width="0.0878845" stroke-linecap="round" stroke-linejoin="round"/>
<path d="M15.6346 20.2925L15.2128 20.0025H12.7784L12.3566 20.2925L12.1368 22.2348L12.339 22.0414H15.6522L15.8719 22.2348L15.6346 20.2925Z" fill="#161616" stroke="#161616" stroke-width="0.0878845" stroke-linecap="round" stroke-linejoin="round"/>
<path d="M24.4582 10.0364L25.2053 6.45071L24.0891 3.11989L15.6346 9.39484L18.8864 12.1456L23.4827 13.4903L24.5022 12.3038L24.0628 11.9874L24.7658 11.3459L24.221 10.924L24.924 10.3879L24.4582 10.0364Z" fill="#763D16" stroke="#763D16" stroke-width="0.0878845" stroke-linecap="round" stroke-linejoin="round"/>
<path d="M2.79468 6.45072L3.5417 10.0364L3.06712 10.3879L3.7702 10.924L3.2341 11.3459L3.93718 11.9874L3.49775 12.3038L4.50843 13.4903L9.10478 12.1456L12.3565 9.39485L3.90202 3.1199L2.79468 6.45072Z" fill="#763D16" stroke="#763D16" stroke-width="0.0878845" stroke-linecap="round" stroke-linejoin="round"/>
<path d="M23.4828 13.4903L18.8864 12.1456L20.2838 14.2461L18.2009 18.2888L20.9429 18.2536H25.0296L23.4828 13.4903Z" fill="#F6851B" stroke="#F6851B" stroke-width="0.0878845" stroke-linecap="round" stroke-linejoin="round"/>
<path d="M9.1048 12.1456L4.50844 13.4903L2.97925 18.2536H7.05709L9.7903 18.2888L7.71622 14.2461L9.1048 12.1456Z" fill="#F6851B" stroke="#F6851B" stroke-width="0.0878845" stroke-linecap="round" stroke-linejoin="round"/>
<path d="M15.3447 14.4658L15.6347 9.39485L16.9705 5.7828H11.0383L12.3566 9.39485L12.6642 14.4658L12.7697 16.0653L12.7784 20.0025H15.2128L15.2304 16.0653L15.3447 14.4658Z" fill="#F6851B" stroke="#F6851B" stroke-width="0.0878845" stroke-linecap="round" stroke-linejoin="round"/>
</svg>
