<svg width="28" height="28" viewBox="0 0 28 28" fill="none" xmlns="http://www.w3.org/2000/svg">
<rect width="28" height="28" rx="6" fill="#5505FE"/>
<path d="M6.70312 14.6123C6.70312 10.1914 9.75293 7.23828 14.1475 7.23828C18.3047 7.23828 21.2314 9.85742 21.2314 13.8301C21.2314 16.5107 19.9219 18.3213 17.7861 18.3213C16.6699 18.3213 15.8438 17.8203 15.6328 16.959H15.501C15.1318 17.8467 14.4023 18.3301 13.3916 18.3301C11.5723 18.3301 10.3506 16.8271 10.3506 14.6123C10.3506 12.459 11.5459 11.0088 13.2773 11.0088C14.2441 11.0088 15.0264 11.457 15.3779 12.248H15.5098V11.958C15.5098 11.3604 15.8438 11.0088 16.4238 11.0088C17.0039 11.0088 17.3379 11.3604 17.3379 11.958V15.8516C17.3379 16.4668 17.6455 16.8184 18.1992 16.8184C19.0518 16.8184 19.623 15.6758 19.623 14.0146C19.623 10.6309 17.2852 8.6709 14.1387 8.6709C10.6582 8.6709 8.32031 11.0967 8.32031 14.6562C8.32031 18.2949 10.79 20.4922 14.5342 20.4922C15.2285 20.4922 15.7119 20.4131 16.292 20.29C16.4414 20.2637 16.5645 20.2549 16.6875 20.2549C17.1533 20.2549 17.3818 20.501 17.3818 20.8701C17.3818 21.2217 17.2061 21.4502 16.7402 21.626C16.1953 21.8193 15.3691 21.9248 14.2705 21.9248C9.82324 21.9248 6.70312 19.1299 6.70312 14.6123ZM13.8486 16.7129C14.7891 16.7129 15.3779 15.9307 15.3779 14.6562C15.3779 13.3906 14.7891 12.6084 13.8486 12.6084C12.917 12.6084 12.3633 13.373 12.3633 14.6562C12.3633 15.9482 12.917 16.7129 13.8486 16.7129Z" fill="white"/>
</svg>
