<svg width="28" height="28" viewBox="0 0 28 28" fill="none" xmlns="http://www.w3.org/2000/svg">
<g clip-path="url(#clip0_283_65)">
<mask id="mask0_283_65" style="mask-type:luminance" maskUnits="userSpaceOnUse" x="0" y="0" width="28" height="28">
<path d="M26.9596 0.0380249H1.16154C0.601211 0.0380249 0.146973 0.492262 0.146973 1.05259V26.8506C0.146973 27.4109 0.601211 27.8652 1.16154 27.8652H26.9596C27.5199 27.8652 27.9741 27.4109 27.9741 26.8506V1.05259C27.9741 0.492262 27.5199 0.0380249 26.9596 0.0380249Z" fill="white"/>
</mask>
<g mask="url(#mask0_283_65)">
<path d="M45.6106 -16.2469H-10.1975V44.6047H45.6106V-16.2469Z" fill="black"/>
<path d="M11.6943 7.93506C11.1464 8.1079 10.1387 7.2437 9.39899 6.46765C9.34746 6.42326 9.28526 6.39304 9.21852 6.37994C9.15178 6.36684 9.08278 6.37132 9.01829 6.39293C8.9538 6.41454 8.89603 6.45255 8.85066 6.50322C8.80529 6.5539 8.77387 6.61549 8.75949 6.68197C8.61257 7.56864 8.22541 8.67135 7.36294 9.11728C6.50047 9.5632 5.44097 9.07925 4.67356 8.53308C4.61221 8.49663 4.54255 8.47649 4.47121 8.47456C4.39987 8.47264 4.32923 8.48899 4.266 8.52208C4.20277 8.55517 4.14906 8.60388 4.10997 8.66359C4.07088 8.7233 4.04773 8.79202 4.0427 8.8632C4.07899 9.79654 3.98912 10.9528 3.49652 11.4817C3.00393 12.0106 1.87356 11.9311 0.988622 11.7237C0.921087 11.7137 0.85212 11.721 0.788149 11.7448C0.724178 11.7687 0.667284 11.8083 0.622769 11.8601C0.578253 11.9118 0.547566 11.974 0.533565 12.0408C0.519564 12.1077 0.522705 12.1769 0.542696 12.2422C0.855536 12.9993 1.15282 14.0432 1.02319 14.9472C0.89356 15.8511 -0.131378 16.183 -1.09237 16.2936C-1.4052 16.3299 -1.59014 16.8518 -1.37582 17.0835C-0.857303 17.64 -0.426933 18.3763 -0.601501 19.1022C-0.786439 19.8696 -1.52274 20.4348 -2.21237 20.7874C-2.2757 20.8298 -2.32778 20.8869 -2.36412 20.9539C-2.40047 21.0208 -2.42 21.0956 -2.42102 21.1718C-2.42204 21.248 -2.40452 21.3233 -2.36998 21.3912C-2.33544 21.4592 -2.28491 21.5177 -2.22274 21.5617C-1.43286 21.9817 -0.601501 22.6402 -0.601501 23.4491C-0.601501 24.4291 -2.46125 25.0963 -3.8215 25.4091C-3.8826 25.4236 -3.93859 25.4545 -3.98347 25.4984C-4.02835 25.5423 -4.06042 25.5976 -4.07623 25.6584C-4.09204 25.7192 -4.09101 25.7831 -4.07323 25.8433C-4.05545 25.9036 -4.02161 25.9578 -3.97533 26.0002C-3.21311 26.6916 -2.26422 27.7857 -2.26422 28.6343C-2.26422 29.483 -3.50866 30.297 -4.53878 30.8069C-4.59731 30.8405 -4.64574 30.8892 -4.67902 30.9479C-4.7123 31.0066 -4.7292 31.0731 -4.72796 31.1406C-4.72673 31.2081 -4.7074 31.274 -4.67199 31.3314C-4.63658 31.3889 -4.5864 31.4357 -4.52669 31.4672C-3.55706 31.9131 -2.38348 32.6649 -2.26422 33.5533C-2.15187 34.3951 -2.95558 35.3526 -3.71434 36.0249C-3.76403 36.0777 -3.79882 36.1427 -3.81516 36.2133C-3.83151 36.284 -3.82883 36.3576 -3.80739 36.4269C-3.78595 36.4961 -3.74652 36.5584 -3.69313 36.6075C-3.63974 36.6565 -3.57429 36.6905 -3.50348 36.7059C-2.27977 36.8546 -0.791624 37.2918 -0.601501 38.3202C-0.491224 38.9749 -0.613518 39.6475 -0.94718 40.2215C-1.10101 40.5015 -0.810637 41.0459 -0.490884 41.0304C0.585907 40.9785 1.86146 41.1237 2.41973 41.8669C3.00912 42.6499 3.12146 43.7941 3.08517 44.641C3.08721 44.7084 3.10574 44.7743 3.13913 44.8329C3.17251 44.8915 3.21974 44.9411 3.27669 44.9772C3.33364 45.0133 3.39857 45.035 3.46581 45.0403C3.53306 45.0455 3.60057 45.0342 3.66245 45.0074C4.57677 44.5373 5.89899 44.1726 6.78912 44.9556C7.37925 45.484 7.79056 46.1828 7.96615 46.9553C8.03702 47.2543 8.55208 47.4323 8.77504 47.2215C9.57529 46.4627 10.7229 45.7437 11.6995 46.2138C12.676 46.6839 13.3899 47.6691 13.7736 48.4175C13.8053 48.4734 13.8504 48.5206 13.9048 48.5547C13.9593 48.5888 14.0214 48.6088 14.0856 48.6129C14.1497 48.6171 14.2139 48.6051 14.2722 48.5783C14.3306 48.5514 14.3814 48.5104 14.42 48.459C15.0284 47.5205 16.0516 46.3106 17.0731 46.2121C18.0945 46.1136 19.18 46.8879 19.8696 47.536C19.9154 47.5767 19.9708 47.605 20.0306 47.6184C20.0904 47.6318 20.1526 47.6297 20.2113 47.6124C20.2701 47.5951 20.3235 47.5632 20.3665 47.5196C20.4095 47.476 20.4408 47.4222 20.4573 47.3632C20.7269 46.2812 21.2731 44.8035 22.0612 44.5286C22.7647 44.2815 23.9158 44.6375 24.7834 45.0143C25.0496 45.1301 25.397 44.8415 25.3555 44.5476C25.2432 43.7751 25.3089 42.738 25.9657 41.86C26.6916 40.8886 28.0397 41.0165 29.0612 41.2672C29.1314 41.2759 29.2027 41.267 29.2687 41.2412C29.3346 41.2155 29.393 41.1736 29.4387 41.1196C29.4843 41.0655 29.5158 41.0009 29.5301 40.9316C29.5445 40.8623 29.5414 40.7905 29.521 40.7227C29.196 39.8844 28.942 38.7126 29.2531 37.9694C29.5797 37.1847 30.8726 36.8321 31.9183 36.7007C31.986 36.6867 32.0489 36.6551 32.1005 36.6091C32.1522 36.5631 32.1909 36.5042 32.2126 36.4385C32.2343 36.3729 32.2383 36.3026 32.2243 36.2348C32.2103 36.1671 32.1786 36.1042 32.1326 36.0526C31.4308 35.3785 30.6444 34.402 30.6444 33.5464C30.6444 32.6909 31.7005 31.9701 32.6494 31.5207C32.7124 31.483 32.7645 31.4295 32.8007 31.3656C32.8369 31.3017 32.856 31.2295 32.856 31.156C32.856 31.0826 32.8369 31.0104 32.8007 30.9465C32.7645 30.8826 32.7124 30.8291 32.6494 30.7913C31.7022 30.3541 30.6513 29.6109 30.6513 28.6274C30.6513 27.6439 31.4291 26.6933 32.1274 26.0728C32.1761 26.0229 32.2111 25.9613 32.2291 25.8939C32.2471 25.8265 32.2474 25.7556 32.2301 25.6881C32.2127 25.6205 32.1782 25.5586 32.13 25.5082C32.0817 25.4578 32.0213 25.4207 31.9546 25.4005C30.781 25.1412 29.3308 24.5467 29.2583 23.4422C29.1978 22.5348 29.8148 21.9178 30.4681 21.541C30.7378 21.3889 30.7516 20.8669 30.4768 20.7286C29.6765 20.3276 28.8244 19.7383 28.719 19.0884C28.5997 18.3676 29.3723 17.4395 30.0602 16.8035C30.1061 16.7571 30.1389 16.6994 30.1552 16.6362C30.1716 16.5731 30.171 16.5067 30.1534 16.4439C30.1359 16.3811 30.102 16.324 30.0553 16.2785C30.0086 16.2329 29.9507 16.2006 29.8874 16.1847C28.9126 15.9894 27.6526 15.5918 27.2481 14.9333C26.8437 14.2748 27.179 13.2222 27.5523 12.4444C27.5777 12.3853 27.5876 12.3206 27.581 12.2566C27.5744 12.1926 27.5516 12.1313 27.5148 12.0785C27.4779 12.0258 27.4282 11.9833 27.3704 11.955C27.3125 11.9268 27.2484 11.9138 27.1842 11.9173C26.2405 12.021 24.9528 12.0054 24.3081 11.4627C23.7706 11.0099 23.781 10.1526 23.9504 9.39901C24.0195 9.09481 23.6047 8.74913 23.3247 8.88049C22.5573 9.21407 21.5963 9.44567 20.8669 9.10518C20.0753 8.73703 19.7192 7.6758 19.5827 6.78049C19.5657 6.70952 19.5309 6.64409 19.4815 6.59042C19.432 6.53676 19.3697 6.49666 19.3003 6.47395C19.231 6.45124 19.157 6.44668 19.0854 6.46071C19.0138 6.47473 18.947 6.50688 18.8913 6.55407C18.257 7.21431 17.3652 7.92296 16.5718 7.92296C15.6575 7.92296 14.802 6.6716 14.3249 5.70888C14.2971 5.6568 14.2565 5.6127 14.2068 5.58078C14.1572 5.54887 14.1002 5.5302 14.0412 5.52656C13.9823 5.52292 13.9234 5.53443 13.8702 5.55999C13.817 5.58555 13.7712 5.62432 13.7373 5.67259C13.1565 6.5679 12.2716 7.76049 11.6943 7.93506Z" fill="white"/>
<path d="M9.73084 6.14963C9.6208 6.03747 9.48076 5.95939 9.32749 5.92475C9.17423 5.89012 9.01423 5.90038 8.86664 5.95432C8.72155 6.00123 8.59189 6.0866 8.49145 6.20134C8.39102 6.31608 8.32356 6.4559 8.29627 6.60592L9.20541 6.75629C9.2019 6.77844 9.19164 6.79896 9.17603 6.81506C9.17229 6.82067 9.16683 6.82492 9.16047 6.82716C9.1508 6.82932 9.14076 6.82932 9.13109 6.82716C9.10328 6.82196 9.07785 6.80804 9.0585 6.78741L9.73084 6.14963ZM14.1123 5.93358C14.1004 5.95316 14.0837 5.96933 14.0637 5.98053C14.0437 5.99173 14.0212 5.99759 13.9982 5.99753C13.9775 5.99548 13.9576 5.98802 13.9406 5.97589C13.9236 5.96376 13.9101 5.94738 13.9015 5.92839L14.7242 5.51531C14.6602 5.39089 14.5649 5.28533 14.4476 5.20906C14.3303 5.13278 14.1952 5.08843 14.0555 5.0804C13.9159 5.07237 13.7765 5.10094 13.6513 5.16327C13.5261 5.2256 13.4193 5.31954 13.3415 5.4358L14.1123 5.93358ZM19.218 6.88592C19.1994 6.90453 19.1761 6.91769 19.1506 6.92395C19.1402 6.92395 19.1402 6.92395 19.1506 6.92395C19.1357 6.90555 19.1261 6.88344 19.1229 6.86L20.0338 6.72345C20.0056 6.56748 19.9351 6.42226 19.8299 6.30368C19.7248 6.18509 19.589 6.09772 19.4375 6.05111C19.287 5.99722 19.1243 5.98712 18.9682 6.022C18.8122 6.05688 18.6693 6.13529 18.556 6.24815L19.218 6.88592ZM23.5061 9.31605H23.4785H23.4405H23.4526L23.4647 9.32469L23.475 9.33506L23.4854 9.34543V9.35407C23.4852 9.35004 23.4852 9.346 23.4854 9.34197C23.4844 9.3351 23.4844 9.32811 23.4854 9.32123C23.4854 9.31259 23.4854 9.30395 23.4854 9.29531L24.3842 9.49753C24.4138 9.33467 24.3983 9.16683 24.3396 9.0121C24.2808 8.85737 24.1809 8.72162 24.0506 8.6195C23.9273 8.50776 23.7754 8.43244 23.6119 8.40192C23.4483 8.37141 23.2795 8.3869 23.1242 8.44666L23.5061 9.31605ZM27.2326 12.3943C27.2146 12.3974 27.1961 12.3959 27.1788 12.3898C27.1616 12.3838 27.1462 12.3734 27.1341 12.3597C27.1259 12.3452 27.1216 12.3289 27.1216 12.3122C27.1216 12.2956 27.1259 12.2792 27.1341 12.2647L27.9637 12.6622C28.024 12.529 28.0486 12.3824 28.0349 12.2368C28.0212 12.0912 27.9697 11.9517 27.8855 11.8321C27.8014 11.7125 27.6875 11.617 27.5551 11.5549C27.4227 11.4929 27.2763 11.4664 27.1306 11.4783L27.2326 12.3943ZM29.7958 16.6548C29.7752 16.6555 29.755 16.6493 29.7382 16.6373C29.7215 16.6253 29.7093 16.6081 29.7033 16.5883C29.6974 16.5686 29.6982 16.5475 29.7055 16.5283C29.7129 16.509 29.7264 16.4927 29.7439 16.482L30.3696 17.1578C30.4781 17.0541 30.5563 16.9228 30.5959 16.7781C30.6356 16.6334 30.6352 16.4806 30.5947 16.3361C30.5542 16.1916 30.4752 16.0608 30.3662 15.9577C30.2571 15.8546 30.1221 15.7831 29.9755 15.7509L29.7958 16.6548ZM30.2659 21.159C30.2497 21.1514 30.2351 21.1408 30.2227 21.1279C30.2176 21.1213 30.213 21.1144 30.2089 21.1072C30.2099 21.1163 30.2099 21.1256 30.2089 21.1348C30.2107 21.1445 30.2107 21.1545 30.2089 21.1642C30.2099 21.1699 30.2099 21.1758 30.2089 21.1815C30.2177 21.1689 30.2296 21.1588 30.2434 21.1521L30.698 21.9541C30.8346 21.8692 30.947 21.7504 31.0243 21.6093C31.1015 21.4682 31.1409 21.3095 31.1387 21.1486C31.1479 20.9831 31.11 20.8184 31.0296 20.6735C30.9492 20.5285 30.8294 20.4092 30.6842 20.3294L30.2659 21.159ZM31.8543 25.862C31.8291 25.8571 31.8061 25.8444 31.7886 25.8257C31.7886 25.8257 31.7886 25.8257 31.7886 25.8153C31.788 25.8119 31.788 25.8084 31.7886 25.8049C31.795 25.7824 31.8076 25.762 31.8249 25.7462L32.4368 26.4375C32.5497 26.3316 32.6321 26.1973 32.6753 26.0486C32.7185 25.8999 32.721 25.7423 32.6825 25.5923C32.644 25.4424 32.5659 25.3055 32.4564 25.196C32.3469 25.0866 32.21 25.0086 32.06 24.9701L31.8543 25.862ZM32.4523 31.22C32.4293 31.21 32.41 31.1931 32.397 31.1716C32.397 31.163 32.397 31.163 32.397 31.1716C32.4093 31.1481 32.4295 31.1298 32.454 31.1197L32.8498 31.9511C32.9897 31.8743 33.1061 31.761 33.1867 31.6233C33.2673 31.4857 33.3091 31.3287 33.3077 31.1692C33.3063 31.0097 33.2617 30.8535 33.1786 30.7173C33.0956 30.5811 32.9772 30.4699 32.836 30.3955L32.4523 31.22ZM31.8024 36.3965C31.7842 36.378 31.7716 36.3546 31.7661 36.3291C31.7661 36.3136 31.7661 36.3067 31.7661 36.3049C31.769 36.298 31.7738 36.292 31.78 36.2877C31.7994 36.2693 31.8243 36.2577 31.8508 36.2548L31.9649 37.1691C32.1194 37.1447 32.2642 37.0781 32.3834 36.9769C32.5026 36.8756 32.5916 36.7434 32.6407 36.5949C32.6898 36.4464 32.697 36.2873 32.6617 36.1349C32.6263 35.9825 32.5497 35.8428 32.4402 35.7311L31.8024 36.3965ZM29.0802 40.9007C29.0751 40.8809 29.0751 40.8601 29.0802 40.8402C29.1062 40.8328 29.1338 40.8328 29.1597 40.8402L28.9402 41.7338C29.0936 41.7685 29.2537 41.7592 29.402 41.7069C29.5503 41.6546 29.6808 41.5615 29.7785 41.4383C29.8801 41.3218 29.9487 41.1801 29.9769 41.0281C30.0052 40.8761 29.9922 40.7193 29.9392 40.5741L29.0802 40.9007ZM24.8889 44.6272C24.8855 44.6106 24.8855 44.5936 24.8889 44.577C24.8889 44.577 24.8889 44.577 24.8785 44.5909C24.8664 44.5909 24.8681 44.6047 24.8785 44.5909C24.9049 44.586 24.9321 44.5896 24.9563 44.6012L24.595 45.4568C24.741 45.5161 24.9006 45.5337 25.056 45.5074C25.2114 45.4812 25.3564 45.4122 25.4748 45.3081C25.5943 45.2133 25.6876 45.0896 25.746 44.9487C25.8044 44.8077 25.8258 44.6543 25.8084 44.5027L24.8889 44.6272ZM20.001 47.2647C20.0049 47.2449 20.0138 47.2265 20.0268 47.211C20.0398 47.1956 20.0565 47.1838 20.0753 47.1765C20.0933 47.1732 20.1118 47.1742 20.1293 47.1797C20.1467 47.1851 20.1626 47.1947 20.1755 47.2076L19.5516 47.8765C19.6556 47.9719 19.7824 48.0389 19.9199 48.0711C20.0573 48.1033 20.2007 48.0996 20.3362 48.0604C20.4718 48.0212 20.595 47.9477 20.694 47.8471C20.793 47.7465 20.8644 47.6221 20.9015 47.4859L20.001 47.2647ZM14.0294 48.2222C14.0378 48.2067 14.05 48.1936 14.0648 48.1839C14.0795 48.1743 14.0965 48.1684 14.1141 48.1669C14.1288 48.1698 14.1426 48.1763 14.1541 48.186C14.1656 48.1957 14.1744 48.2082 14.1797 48.2222L13.3605 48.6422C13.4276 48.7696 13.5266 48.8774 13.6477 48.9553C13.7689 49.0331 13.9081 49.0783 14.0518 49.0864C14.1976 49.0984 14.344 49.0711 14.4756 49.0072C14.6073 48.9434 14.7194 48.8454 14.8002 48.7234L14.0294 48.2222ZM8.45356 46.9C8.46868 46.8825 8.48949 46.8709 8.51232 46.8672H8.49331C8.48035 46.8657 8.46759 46.8628 8.45529 46.8585C8.44202 46.8541 8.42927 46.8483 8.41726 46.8412L8.39306 46.8257C8.38269 46.8153 8.39306 46.8257 8.40862 46.8637L7.51331 47.0763C7.55782 47.231 7.64049 47.3721 7.75375 47.4866C7.867 47.601 8.00719 47.6852 8.16146 47.7314C8.31582 47.7901 8.48315 47.8061 8.64586 47.7779C8.80857 47.7496 8.96066 47.678 9.08615 47.5706L8.45356 46.9ZM3.44121 44.6116C3.45994 44.6022 3.48082 44.5981 3.50171 44.5995H3.51208C3.51208 44.5995 3.51208 44.5995 3.52072 44.6099C3.53081 44.629 3.53558 44.6505 3.53454 44.6721L2.61504 44.6323C2.61357 44.7804 2.6498 44.9264 2.72031 45.0566C2.79082 45.1868 2.8933 45.297 3.01811 45.3767C3.14292 45.4564 3.28595 45.503 3.43374 45.5122C3.58153 45.5213 3.72923 45.4928 3.86294 45.4291L3.44121 44.6116ZM-0.518541 40.5758C-0.493228 40.5751 -0.468018 40.5792 -0.44422 40.5879C-0.46716 40.5688 -0.485979 40.5453 -0.499528 40.5188C-0.516611 40.4881 -0.528304 40.4548 -0.534096 40.4202C-0.534096 40.3943 -0.534096 40.4116 -0.549652 40.4496L-1.35508 40.0037C-1.42647 40.1556 -1.45925 40.3228 -1.4505 40.4905C-1.44176 40.6581 -1.39177 40.821 -1.30496 40.9647C-1.18224 41.1877 -0.900517 41.516 -0.473603 41.4953L-0.518541 40.5758ZM-3.45681 36.2548C-3.42997 36.2574 -3.40459 36.2683 -3.38422 36.2859C-3.37385 36.2963 -3.37385 36.2997 -3.37558 36.2963C-3.37731 36.2928 -3.37558 36.2963 -3.37558 36.3084C-3.38169 36.3343 -3.39629 36.3574 -3.41706 36.3741L-4.02718 35.6827C-4.14547 35.7937 -4.23015 35.9357 -4.27153 36.0925C-4.31292 36.2493 -4.30933 36.4146 -4.26119 36.5695C-4.21305 36.7244 -4.12229 36.8626 -3.9993 36.9683C-3.87631 37.0741 -3.72605 37.1431 -3.5657 37.1674L-3.45681 36.2548ZM-4.34348 31.0541C-4.31983 31.0646 -4.29994 31.0821 -4.28644 31.1042C-4.2804 31.1141 -4.27684 31.1254 -4.27607 31.137C-4.27709 31.1486 -4.28063 31.1598 -4.28644 31.1699C-4.2991 31.1935 -4.31913 31.2123 -4.34348 31.2235L-4.75138 30.399C-4.88797 30.4712 -5.00191 30.5797 -5.08057 30.7127C-5.15923 30.8456 -5.19954 30.9978 -5.19703 31.1522C-5.19453 31.3067 -5.1493 31.4574 -5.06637 31.5878C-4.98344 31.7181 -4.86604 31.8229 -4.72718 31.8906L-4.34348 31.0541ZM-3.67286 25.6649C-3.65682 25.6792 -3.64472 25.6973 -3.63776 25.7176C-3.63079 25.7379 -3.62919 25.7596 -3.63311 25.7807C-3.64028 25.8017 -3.65284 25.8204 -3.66952 25.835C-3.68621 25.8495 -3.70644 25.8594 -3.72817 25.8637L-3.93385 24.9667C-4.07658 25.0008 -4.20738 25.073 -4.3123 25.1756C-4.41721 25.2782 -4.49231 25.4073 -4.52957 25.5493C-4.56683 25.6912 -4.56486 25.8406 -4.52386 25.9815C-4.48287 26.1224 -4.4044 26.2496 -4.29681 26.3494L-3.67286 25.6649ZM-2.01533 21.1607C-2.00206 21.1683 -1.98986 21.1776 -1.97903 21.1884L-1.96521 21.2074C-1.96521 21.2074 -1.96521 21.197 -1.96521 21.1884C-1.96618 21.1821 -1.96618 21.1757 -1.96521 21.1694C-1.97676 21.1878 -1.99364 21.2023 -2.0136 21.2109L-2.41978 20.383C-2.55773 20.4642 -2.67235 20.5798 -2.75255 20.7184C-2.83275 20.8569 -2.8758 21.0139 -2.87754 21.174C-2.87928 21.3341 -2.83964 21.492 -2.76247 21.6323C-2.6853 21.7726 -2.57321 21.8906 -2.43706 21.9748L-2.01533 21.1607ZM-1.03706 16.7758C-1.02695 16.788 -1.01825 16.8014 -1.01113 16.8156C-1.01113 16.8259 -1.01113 16.8311 -1.01113 16.8277V16.8086C-1.01173 16.7971 -1.01173 16.7856 -1.01113 16.7741C-1.00705 16.7637 -1.00183 16.7539 -0.995577 16.7447V16.7309L-1.00941 16.7412C-1.02524 16.7486 -1.04218 16.7532 -1.05953 16.7551L-1.16496 15.8407C-1.33108 15.8678 -1.48642 15.9405 -1.61367 16.0507C-1.74092 16.1608 -1.8351 16.3042 -1.8857 16.4647C-1.94778 16.6198 -1.96659 16.7889 -1.9401 16.9539C-1.91362 17.1189 -1.84285 17.2736 -1.73533 17.4015L-1.03706 16.7758ZM0.967879 12.0711C0.978522 12.0937 0.981554 12.1192 0.976521 12.1437C0.977065 12.1483 0.977065 12.1529 0.976521 12.1575H0.964422C0.940813 12.1651 0.91544 12.1651 0.89183 12.1575L1.10097 11.2605C0.950523 11.2314 0.79505 11.2428 0.650482 11.2936C0.505913 11.3444 0.377448 11.4327 0.27825 11.5495C0.179052 11.6663 0.112689 11.8074 0.0859623 11.9582C0.0592351 12.1091 0.0731049 12.2644 0.126151 12.4081L0.967879 12.0711ZM4.50417 8.84592C4.50479 8.87275 4.49758 8.89917 4.48343 8.92197C4.48343 8.93407 4.47134 8.93407 4.48343 8.93234C4.46081 8.93037 4.43923 8.92197 4.42121 8.90815L4.95356 8.15802C4.82374 8.06989 4.67215 8.01923 4.51543 8.0116C4.35871 8.00398 4.20292 8.03969 4.06516 8.11481C3.92254 8.18491 3.80278 8.29411 3.71985 8.42968C3.63692 8.56525 3.59423 8.72159 3.59677 8.88049L4.50417 8.84592ZM7.57553 9.52691C8.08615 9.24156 8.49379 8.80247 8.74047 8.2721C8.97229 7.79298 9.13189 7.28217 9.21405 6.75629L8.30492 6.60592C8.23861 7.03993 8.10813 7.46166 7.91775 7.85728C7.75844 8.21474 7.49053 8.5129 7.15208 8.70938L7.57553 9.52691ZM4.40738 8.90815C4.84744 9.23171 5.33884 9.47887 5.86097 9.63926C6.42568 9.82358 7.03969 9.78334 7.57553 9.52691L7.15208 8.70938C6.82478 8.85648 6.45343 8.87195 6.11504 8.75259C5.69455 8.61978 5.29868 8.41893 4.94319 8.15802L4.40738 8.90815ZM3.83356 11.7946C4.17924 11.4299 4.33825 10.8993 4.42121 10.3998C4.50071 9.8853 4.52851 9.36418 4.50417 8.8442L3.58294 8.87876C3.60518 9.33565 3.58202 9.79361 3.51381 10.2459C3.4838 10.5786 3.36435 10.8969 3.16813 11.1672L3.83356 11.7946ZM0.883188 12.1731C1.38101 12.2971 1.89296 12.3552 2.4059 12.3459C2.90195 12.3252 3.4585 12.2025 3.83356 11.798L3.15948 11.1723C3.03331 11.3089 2.77751 11.4091 2.36788 11.4264C1.9381 11.4334 1.50925 11.3841 1.09232 11.2795L0.883188 12.1731ZM1.47776 15.018C1.6264 13.9896 1.29109 12.8506 0.959238 12.0798L0.108867 12.4254C0.413064 13.1583 0.670595 14.1089 0.558249 14.8867L1.47776 15.018ZM-1.03706 16.7551C-0.502854 16.7064 0.017621 16.5587 0.497756 16.3195C0.753901 16.1974 0.976851 16.0153 1.14774 15.7888C1.31863 15.5622 1.43242 15.2979 1.47948 15.018L0.56862 14.8849C0.532323 15.1356 0.371583 15.3395 0.0604715 15.5089C-0.319094 15.6927 -0.729193 15.8052 -1.14941 15.8407L-1.03706 16.7551ZM-0.152121 19.2146C0.0794835 18.2484 -0.4978 17.3531 -1.03533 16.7758L-1.71286 17.4015C-1.21681 17.9373 -0.931627 18.5128 -1.04743 19.0002L-0.152121 19.2146ZM-2.0015 21.2022C-1.28768 20.8375 -0.387183 20.1911 -0.152121 19.2146L-1.04743 19.0002C-1.18224 19.5585 -1.75434 20.0373 -2.41978 20.383L-2.0015 21.2022ZM-0.140022 23.4491C-0.161571 22.9135 -0.392436 22.4077 -0.782985 22.0405C-1.14206 21.684 -1.55429 21.3855 -2.00496 21.1556L-2.43706 21.9696C-2.07238 22.1542 -1.73787 22.3932 -1.44496 22.6783C-1.2223 22.876 -1.08479 23.1523 -1.06126 23.4491H-0.140022ZM-3.7178 25.8585C-2.94659 25.6911 -2.1981 25.4323 -1.48817 25.0877C-1.15225 24.9233 -0.845213 24.7056 -0.579034 24.443C-0.308675 24.1816 -0.151135 23.825 -0.140022 23.4491H-1.06299C-1.07566 23.5875 -1.1413 23.7157 -1.24619 23.8069C-1.44257 23.9958 -1.66778 24.1521 -1.91336 24.2701C-2.55442 24.579 -3.22971 24.811 -3.92521 24.9615L-3.7178 25.8585ZM-1.80447 28.6395C-1.80447 28.0657 -2.11385 27.4815 -2.45953 26.9993C-2.81769 26.5156 -3.22297 26.0686 -3.6694 25.6649L-4.29336 26.3442C-3.89436 26.704 -3.53246 27.103 -3.21311 27.5351C-2.89336 27.981 -2.72916 28.3647 -2.72916 28.6395H-1.80447ZM-4.33484 31.2235C-3.75685 30.9472 -3.21377 30.6031 -2.71706 30.1985C-2.26249 29.8114 -1.80447 29.2756 -1.80447 28.643H-2.72397C-2.72397 28.8435 -2.89681 29.139 -3.31335 29.5072C-3.75336 29.8621 -4.23302 30.1649 -4.74274 30.4094L-4.33484 31.2235ZM-1.80792 33.498C-1.89089 32.8793 -2.32644 32.3728 -2.78274 31.9943C-3.25987 31.617 -3.78247 31.3012 -4.33829 31.0541L-4.722 31.8906C-4.24063 32.1051 -3.78778 32.3785 -3.37385 32.7047C-2.97286 33.0348 -2.76027 33.3494 -2.72397 33.6207L-1.80792 33.498ZM-3.41015 36.3741C-2.97947 36.0039 -2.5989 35.5792 -2.27805 35.1106C-1.97212 34.6457 -1.73015 34.0736 -1.80792 33.498L-2.72052 33.6207C-2.68595 33.8783 -2.78965 34.2136 -3.04718 34.6042C-3.32324 35.005 -3.65036 35.3682 -4.02027 35.6844L-3.41015 36.3741ZM-0.148664 38.2425C-0.283479 37.5096 -0.869405 37.0516 -1.46916 36.7716C-2.09854 36.4989 -2.76593 36.324 -3.44817 36.2531L-3.55879 37.1674C-2.97385 37.2268 -2.40113 37.3736 -1.85977 37.603C-1.362 37.8363 -1.10965 38.1111 -1.05434 38.4067L-0.148664 38.2425ZM-0.549652 40.4444C-0.163006 39.7779 -0.0211844 38.9972 -0.148664 38.2373L-1.05434 38.4101C-0.965564 38.9607 -1.07194 39.525 -1.35508 40.0054L-0.549652 40.4444ZM2.78269 41.5886C2.41109 41.096 1.83208 40.8368 1.25825 40.702C0.674517 40.579 0.0767055 40.5366 -0.518541 40.5758L-0.473603 41.4953C0.0359874 41.4618 0.547761 41.4985 1.04738 41.6042C1.52096 41.7148 1.85973 41.8997 2.0464 42.1486L2.78269 41.5886ZM3.53973 44.66C3.57776 43.7854 3.47059 42.5047 2.78269 41.5886L2.0464 42.1434C2.53726 42.7951 2.65652 43.8027 2.62022 44.6202L3.53973 44.66ZM7.08813 44.6081C6.82737 44.3883 6.52355 44.2254 6.19614 44.1298C5.86873 44.0343 5.52496 44.0082 5.18689 44.0533C4.57793 44.1251 3.98768 44.3097 3.4464 44.5978L3.86812 45.417C4.30488 45.1824 4.7813 45.0306 5.27331 44.9694C5.48697 44.9364 5.7052 44.9489 5.9137 45.006C6.1222 45.0632 6.31627 45.1638 6.48319 45.3012L7.08813 44.6081ZM8.40862 46.8551C8.21126 45.9876 7.74994 45.2026 7.08813 44.6081L6.47973 45.2995C6.99925 45.7645 7.3616 46.3793 7.51677 47.059L8.40862 46.8551ZM11.8948 45.8025C11.2449 45.4896 10.5674 45.5899 9.99356 45.8353C9.42521 46.0951 8.90644 46.4519 8.46047 46.8896L9.09306 47.5585C9.46004 47.1972 9.8862 46.9014 10.3531 46.6839C10.7903 46.4973 11.1741 46.4731 11.5024 46.6321L11.8948 45.8025ZM14.1728 48.2222C13.7684 47.4358 13.0131 46.3538 11.8879 45.8128L11.4886 46.6425C12.3528 47.0573 12.9871 47.9301 13.3536 48.6422L14.1728 48.2222ZM17.0178 45.7679C16.3541 45.8318 15.7508 46.2449 15.2652 46.6995C14.7934 47.1573 14.3764 47.6683 14.0224 48.2222L14.795 48.7234C15.109 48.2265 15.4803 47.7682 15.9012 47.358C16.3368 46.9501 16.7533 46.7081 17.1111 46.6667L17.0178 45.7679ZM20.1755 47.2163C19.7595 46.8218 19.2948 46.482 18.7928 46.2052C18.2556 45.8884 17.6372 45.7363 17.0143 45.7679L17.1024 46.6857C17.5439 46.6713 17.98 46.7861 18.3573 47.0158C18.7863 47.2535 19.184 47.5438 19.5412 47.88L20.1755 47.2163ZM21.9039 44.1138C21.6128 44.2263 21.3565 44.4135 21.1607 44.6565C20.9561 44.9019 20.7819 45.1712 20.6422 45.4585C20.3654 46.0393 20.1505 46.6476 20.001 47.2733L20.8945 47.4963C21.0276 46.9356 21.2194 46.3904 21.4666 45.8699C21.5715 45.6507 21.702 45.4447 21.8555 45.2563C21.9452 45.1369 22.0643 45.0428 22.2012 44.9832L21.9039 44.1138ZM24.9615 44.6133C24.4755 44.398 23.9703 44.229 23.4526 44.1086C22.9444 43.998 22.3775 43.9479 21.897 44.1086L22.2012 44.9728C22.5474 44.8919 22.9086 44.9008 23.2503 44.9988C23.7124 45.1074 24.1627 45.2608 24.595 45.4568L24.9615 44.6133ZM25.5923 41.6042C24.8353 42.6153 24.7731 43.7906 24.901 44.6358L25.8136 44.5027C25.7116 43.801 25.7773 42.9022 26.3321 42.1555L25.5923 41.6042ZM29.1649 40.842C28.5742 40.6813 27.9605 40.6229 27.3501 40.6691C27.0075 40.6914 26.6736 40.7863 26.3706 40.9475C26.0675 41.1087 25.8022 41.3326 25.5923 41.6042L26.3303 42.1555C26.4643 41.986 26.6332 41.8472 26.8256 41.7488C27.0179 41.6504 27.2293 41.5946 27.4452 41.5852C27.9501 41.5508 28.4573 41.6016 28.9454 41.7355L29.1649 40.842ZM28.8192 37.8138C28.6388 38.3193 28.5918 38.8629 28.6827 39.3918C28.7568 39.9114 28.8907 40.4206 29.082 40.9094L29.9461 40.5775C29.781 40.1567 29.6651 39.7183 29.6005 39.2709C29.5313 38.903 29.5563 38.5237 29.6731 38.1681L28.8192 37.8138ZM31.8526 36.2583C31.2637 36.3251 30.6858 36.4668 30.1328 36.68C29.6022 36.8978 29.0543 37.2435 28.8192 37.8086L29.6696 38.1543C29.7612 37.9348 30.0153 37.7118 30.4819 37.5235C30.9596 37.3412 31.4585 37.2204 31.9666 37.1639L31.8526 36.2583ZM30.176 33.562C30.176 34.122 30.4266 34.6699 30.7308 35.1348C31.0406 35.595 31.4006 36.0193 31.8042 36.4L32.442 35.7346C32.0891 35.4025 31.7738 35.0327 31.5017 34.6318C31.2703 34.3196 31.1302 33.9492 31.0973 33.562H30.176ZM32.4489 31.1111C31.9177 31.3531 31.4232 31.6684 30.9797 32.0479C30.5615 32.4247 30.1812 32.9328 30.1812 33.5533H31.1111C31.1111 33.3235 31.258 33.0452 31.6037 32.7323C31.9819 32.4128 32.4024 32.147 32.8533 31.9425L32.4489 31.1111ZM30.1812 28.6395C30.1812 29.3067 30.5373 29.8494 30.9676 30.259C31.4056 30.6569 31.9045 30.9819 32.4454 31.2217L32.8395 30.3852C32.391 30.1872 31.9763 29.9201 31.6106 29.5936C31.2787 29.2756 31.1111 28.9575 31.1111 28.6395H30.1812ZM31.8111 25.741C31.3969 26.1023 31.0335 26.518 30.7308 26.9768C30.3922 27.467 30.2014 28.0441 30.1812 28.6395H31.1111C31.1324 28.2209 31.2721 27.817 31.5138 27.4746C31.772 27.0869 32.0807 26.7352 32.4316 26.4289L31.8111 25.741ZM28.7899 23.4854C28.84 24.2546 29.3706 24.7904 29.9444 25.143C30.5354 25.4832 31.1774 25.7259 31.8457 25.862L32.0444 24.9615C31.4759 24.848 30.9291 24.6444 30.4249 24.3583C29.9617 24.0731 29.7336 23.7602 29.7076 23.4249L28.7899 23.4854ZM30.2313 21.159C29.5192 21.5635 28.7121 22.3136 28.7899 23.4854L29.7094 23.4249C29.6661 22.7785 30.0931 22.2963 30.6859 21.961L30.2313 21.159ZM28.2541 19.1852C28.3336 19.6726 28.674 20.0718 29.0284 20.3743C29.4065 20.6841 29.8195 20.9486 30.259 21.1625L30.6721 20.3397C30.2988 20.1593 29.9479 19.936 29.6264 19.6743C29.3274 19.4185 29.1891 19.199 29.1632 19.0365L28.2541 19.1852ZM29.737 16.4872C29.3461 16.8443 28.9981 17.2457 28.7 17.6832C28.4182 18.1101 28.1815 18.6477 28.261 19.1852L29.1701 19.0365C29.139 18.8533 29.2202 18.5664 29.4691 18.1896C29.7282 17.8134 30.0304 17.4688 30.3696 17.163L29.737 16.4872ZM26.8471 15.196C27.1271 15.6541 27.6578 15.9652 28.1659 16.1795C28.6897 16.3926 29.2333 16.553 29.7889 16.6583L29.9617 15.756C29.468 15.6614 28.9846 15.519 28.5185 15.3309C28.0501 15.1338 27.7476 14.916 27.6232 14.7138L26.8471 15.196ZM27.1358 12.2716C26.9146 12.7187 26.7531 13.1929 26.6553 13.682C26.5689 14.1711 26.5671 14.7346 26.854 15.1995L27.637 14.7173C27.5264 14.5358 27.4901 14.2454 27.5627 13.8444C27.6452 13.4368 27.7806 13.0417 27.9654 12.6691L27.1358 12.2716ZM24.0108 11.8412C24.4378 12.199 25.0289 12.3598 25.5802 12.4151C26.1299 12.4696 26.6839 12.465 27.2326 12.4012L27.1323 11.4852C26.6515 11.5424 26.1659 11.5476 25.6839 11.5007C25.1948 11.4454 24.8197 11.3193 24.6037 11.136L24.0108 11.8412ZM23.4923 9.32469C23.3899 9.74986 23.3584 10.189 23.399 10.6244C23.4375 11.0905 23.6542 11.5238 24.0039 11.8343L24.5968 11.1291C24.4249 10.9673 24.3231 10.7446 24.3133 10.5086C24.2843 10.1771 24.3106 9.84296 24.3911 9.52L23.4923 9.32469ZM20.6647 9.54247C21.1279 9.73895 21.6376 9.79892 22.1338 9.71531C22.6048 9.64496 23.0641 9.51123 23.4992 9.31778L23.1311 8.46913C22.7749 8.62905 22.3987 8.7401 22.0128 8.79926C21.69 8.85754 21.3573 8.82277 21.0536 8.69901L20.6647 9.54247ZM19.1195 6.86691C19.19 7.38349 19.3368 7.88675 19.555 8.36024C19.7769 8.87092 20.1691 9.28877 20.6647 9.54247L21.0536 8.70765C20.7518 8.54172 20.5158 8.27767 20.3847 7.95926C20.2068 7.56926 20.0874 7.15518 20.0303 6.73037L19.1195 6.86691ZM16.5666 8.40345C17.0956 8.37336 17.6051 8.19353 18.0358 7.88494C18.4662 7.5975 18.8628 7.26237 19.218 6.88592L18.5526 6.24815C18.2474 6.57422 17.9058 6.86418 17.5345 7.11234C17.2516 7.3204 16.9166 7.44603 16.5666 7.47531V8.40345ZM13.9015 5.92839C14.1777 6.49368 14.5263 7.02065 14.9385 7.49605C15.3481 7.95407 15.9081 8.39654 16.5701 8.39654V7.47531C16.3178 7.47531 15.9911 7.2921 15.6247 6.88247C15.2691 6.46647 14.9677 6.00709 14.7276 5.51531L13.9015 5.92839ZM11.8274 8.37753C12.0691 8.29181 12.2908 8.15772 12.479 7.98346C12.6894 7.79516 12.8858 7.59183 13.0666 7.37506C13.4453 6.91713 13.7945 6.43567 14.1123 5.93358L13.338 5.4358C13.0416 5.90407 12.7161 6.35319 12.3632 6.78049C12.2133 6.96096 12.0504 7.13022 11.8758 7.28691C11.7852 7.37478 11.6791 7.4451 11.5629 7.49432L11.8274 8.37753ZM9.06195 6.78741C9.45463 7.20572 9.88446 7.58753 10.3461 7.92815C10.5598 8.08463 10.7921 8.21409 11.0375 8.31358C11.2843 8.42075 11.5596 8.44323 11.8205 8.37753L11.556 7.49432C11.4901 7.49797 11.4244 7.48363 11.3659 7.45284C11.1919 7.38085 11.0276 7.28736 10.8768 7.17457C10.4625 6.86823 10.0767 6.5252 9.72393 6.14963L9.06195 6.78741Z" fill="black"/>
<path d="M11.155 20.9931C11.2052 21.7812 10.78 22.4501 10.2061 22.4864C9.63232 22.5227 9.12762 21.9126 9.0775 21.1244C9.02738 20.3363 9.45256 19.6657 10.0264 19.6294C10.6002 19.5931 11.1066 20.2049 11.155 20.9931Z" fill="black"/>
<path d="M20.4487 20.7252C20.5472 21.5099 20.1635 22.203 19.5932 22.2807C19.0228 22.3585 18.4801 21.7743 18.3833 20.9896C18.2865 20.2049 18.6685 19.5119 19.2388 19.4341C19.8092 19.3563 20.3502 19.9405 20.4487 20.7252Z" fill="black"/>
<path d="M15.0959 21.3025C16.0344 21.2662 16.8243 21.7916 16.8433 22.4743C16.8623 23.157 16.1295 23.7395 15.1892 23.7758C14.249 23.8121 13.4695 23.2867 13.4435 22.6039C13.4176 21.9212 14.1574 21.3388 15.0959 21.3025Z" fill="black"/>
<mask id="mask1_283_65" style="mask-type:luminance" maskUnits="userSpaceOnUse" x="13" y="21" width="4" height="3">
<path d="M15.0959 21.3025C16.0344 21.2662 16.8243 21.7916 16.8433 22.4743C16.8623 23.157 16.1295 23.7395 15.1892 23.7758C14.249 23.8121 13.4695 23.2867 13.4435 22.6039C13.4176 21.9212 14.1574 21.3388 15.0959 21.3025Z" fill="white"/>
</mask>
<g mask="url(#mask1_283_65)">
<path d="M14.363 22.5677C14.363 22.5936 14.3457 22.5365 14.4771 22.4346C14.6678 22.2982 14.896 22.224 15.1304 22.222L15.0613 20.3812C14.4361 20.3972 13.8316 20.6087 13.3329 20.9862C13.0755 21.1771 12.8673 21.4265 12.7255 21.7138C12.5836 22.0012 12.5122 22.3181 12.5171 22.6385L14.363 22.5677ZM15.1546 22.8546C14.9209 22.8715 14.6878 22.8154 14.4875 22.6938C14.3475 22.6005 14.363 22.5435 14.363 22.5677L12.5223 22.6385C12.5416 22.9582 12.6368 23.2688 12.8 23.5444C12.9632 23.82 13.1897 24.0528 13.4608 24.2235C13.9851 24.5616 14.6024 24.7266 15.2255 24.6953L15.1546 22.8546ZM15.922 22.5089C15.922 22.483 15.9393 22.54 15.8097 22.6437C15.618 22.7793 15.3894 22.8529 15.1546 22.8546L15.2255 24.6953C15.8508 24.6802 16.4556 24.4685 16.9539 24.0904C17.2112 23.8999 17.4193 23.6508 17.5609 23.3637C17.7025 23.0766 17.7735 22.7598 17.7679 22.4397L15.922 22.5089ZM15.1304 22.222C15.3645 22.2067 15.5977 22.2627 15.7993 22.3827C15.9376 22.476 15.9237 22.5348 15.922 22.5089L17.7628 22.4397C17.744 22.1197 17.649 21.8087 17.4857 21.5327C17.3225 21.2567 17.0957 21.0237 16.8242 20.8531C16.3002 20.5157 15.6838 20.3507 15.0613 20.3812L15.1304 22.222Z" fill="black"/>
</g>
<path d="M14.9887 25.4351C15.2334 25.1218 15.41 24.761 15.5072 24.3756C15.585 24.0939 15.6268 23.8035 15.6317 23.5114H14.7104C14.7053 23.7194 14.6745 23.9261 14.6188 24.1267C14.5546 24.3871 14.4369 24.6314 14.2732 24.8439L14.9887 25.4351ZM12.1559 25.4817C12.3196 25.6207 12.5077 25.728 12.7107 25.798C12.9411 25.8851 13.1815 25.9431 13.4263 25.9709C13.9154 26.0193 14.5722 25.9501 14.9818 25.442L14.2714 24.8578C14.147 25.0081 13.8877 25.0928 13.5127 25.0548C13.346 25.0378 13.1822 24.9995 13.0253 24.9407C12.9344 24.9122 12.849 24.8684 12.7729 24.8111L12.1559 25.4817ZM15.6351 23.5183C15.628 23.401 15.5763 23.2909 15.4907 23.2103C15.4051 23.1298 15.292 23.085 15.1745 23.085C15.057 23.085 14.9439 23.1298 14.8583 23.2103C14.7728 23.2909 14.7211 23.401 14.7139 23.5183H15.6351ZM12.7798 24.7973C12.69 24.7145 12.571 24.6709 12.4489 24.6759C12.3269 24.6809 12.2118 24.7342 12.1291 24.8241C12.0464 24.9139 12.0027 25.0329 12.0077 25.155C12.0127 25.277 12.066 25.3921 12.1559 25.4748L12.7798 24.7973Z" fill="black"/>
<path d="M15.8546 25.4886C15.5214 25.2142 15.2667 24.8564 15.1166 24.4516C14.9898 24.1496 14.9161 23.828 14.8988 23.501H15.82C15.838 23.7104 15.8888 23.9157 15.9704 24.1094C16.0591 24.3607 16.2116 24.5846 16.4129 24.7593L15.8546 25.4886ZM18.6494 24.6106C18.3472 24.9192 18.0142 25.196 17.6556 25.4368C17.2062 25.7133 16.4993 25.9812 15.8546 25.4886L16.4129 24.7558C16.5857 24.8837 16.807 24.8785 17.1716 24.6538C17.4795 24.4425 17.7655 24.2011 18.0255 23.9331L18.6494 24.6106ZM14.8988 23.5062C14.906 23.3889 14.9576 23.2788 15.0432 23.1983C15.1288 23.1177 15.2419 23.0729 15.3594 23.0729C15.4769 23.0729 15.59 23.1177 15.6756 23.1983C15.7612 23.2788 15.8129 23.3889 15.82 23.5062H14.8988ZM18.0255 23.9417C18.1153 23.859 18.2344 23.8153 18.3564 23.8204C18.4784 23.8254 18.5935 23.8787 18.6762 23.9685C18.759 24.0584 18.8026 24.1774 18.7976 24.2994C18.7926 24.4215 18.7393 24.5365 18.6494 24.6193L18.0255 23.9417Z" fill="black"/>
<path d="M21.7398 14.0519C21.7164 14.0629 21.6906 14.0679 21.6648 14.0663C21.639 14.0647 21.614 14.0567 21.5921 14.0429C21.5702 14.0291 21.5522 14.01 21.5396 13.9874C21.5271 13.9648 21.5204 13.9394 21.5203 13.9136H22.4398C22.4396 13.7841 22.4066 13.6568 22.3439 13.5435C22.2813 13.4303 22.1909 13.3347 22.0814 13.2657C21.9719 13.1967 21.8467 13.1565 21.7174 13.1489C21.5882 13.1413 21.4591 13.1665 21.3423 13.2222L21.7398 14.0519ZM21.5203 13.9136V14.9731H22.4398V13.9136H21.5203ZM20.0131 14.8728L21.7415 14.0519L21.344 13.2205L19.6156 14.0415L20.0131 14.8728Z" fill="black"/>
<path d="M6.76838 14.4114C6.76825 14.4379 6.76125 14.4639 6.74809 14.4869C6.73493 14.5099 6.71604 14.5292 6.69326 14.5427C6.67047 14.5563 6.64457 14.5637 6.61806 14.5643C6.59156 14.5649 6.56534 14.5587 6.54196 14.5462L6.98616 13.739C6.86931 13.6747 6.73773 13.642 6.60439 13.6441C6.47105 13.6461 6.34055 13.6829 6.22575 13.7508C6.11095 13.8187 6.01582 13.9153 5.94973 14.0311C5.88364 14.1469 5.84888 14.278 5.84888 14.4114H6.76838ZM6.54196 14.5462L8.18567 15.4536L8.62987 14.6481L6.98616 13.739L6.54196 14.5462ZM6.76838 16.4042V14.4114H5.84888V16.4042H6.76838Z" fill="black"/>
</g>
</g>
<defs>
<clipPath id="clip0_283_65">
<rect width="28" height="28" rx="6" fill="white"/>
</clipPath>
</defs>
</svg>
