<svg width="62" height="12" viewBox="0 0 62 12" fill="none" xmlns="http://www.w3.org/2000/svg">
<g id="TOMO">
<path d="M3.70525 2.48454C3.70525 2.10583 3.39382 1.79883 3.00964 1.79883H0.863577C0.479403 1.79883 0.167969 1.49182 0.167969 1.11311V0.820206C0.167969 0.441497 0.479403 0.134492 0.863578 0.134492H8.42883C8.81301 0.134492 9.12444 0.441496 9.12444 0.820206V1.11311C9.12444 1.49182 8.81301 1.79883 8.42883 1.79883H6.28277C5.89859 1.79883 5.58716 2.10583 5.58716 2.48454V11.0319C5.58716 11.4106 5.27572 11.7176 4.89155 11.7176H4.40086C4.01669 11.7176 3.70525 11.4106 3.70525 11.0319V2.48454Z" fill="white"/>
<path d="M16.3528 2.97563C15.5339 3.79939 15.1331 4.79127 15.1331 5.95126C15.1331 7.11125 15.5339 8.10312 16.3528 8.92689C17.1718 9.73384 18.165 10.1373 19.3499 10.1373C20.5349 10.1373 21.5281 9.73384 22.3471 8.92689C23.166 8.10312 23.5842 7.11125 23.5842 5.95126C23.5842 4.79127 23.166 3.79939 22.3471 2.97563C21.5281 2.15187 20.5349 1.74839 19.3499 1.74839C18.165 1.74839 17.1718 2.15187 16.3528 2.97563ZM13.286 5.95126C13.286 4.28692 13.8785 2.89157 15.046 1.73158C16.2134 0.571589 17.6597 0 19.3499 0C21.0576 0 22.5039 0.571589 23.6714 1.73158C24.8563 2.89157 25.4487 4.28692 25.4487 5.95126C25.4487 7.59878 24.8563 8.99413 23.6714 10.1541C22.5039 11.3141 21.0576 11.8857 19.3499 11.8857C17.6597 11.8857 16.2134 11.3141 15.046 10.1541C13.8785 8.99413 13.286 7.59878 13.286 5.95126Z" fill="white"/>
<path d="M33.0466 0.134492C33.3127 0.134492 33.5555 0.284152 33.672 0.520001L36.9336 7.12285C37.1875 7.63686 37.9305 7.63686 38.1844 7.12285L41.446 0.52C41.5625 0.284152 41.8053 0.134492 42.0714 0.134492H42.6775C43.0284 0.134492 43.3244 0.392163 43.3678 0.735443L44.6582 10.9471C44.7099 11.3563 44.3862 11.7176 43.9679 11.7176H43.5241C43.1726 11.7176 42.8764 11.4592 42.8336 11.1153L42.1621 5.71296C42.0782 5.03793 41.1561 4.88208 40.8488 5.491L38.5524 10.0427C38.4349 10.2758 38.1936 10.4231 37.9296 10.4231H37.2223C36.9587 10.4231 36.7179 10.2763 36.6 10.044L34.2869 5.4817C33.9788 4.87401 33.0581 5.03054 32.9743 5.70487L32.3018 11.1153C32.259 11.4592 31.9628 11.7176 31.6113 11.7176H31.1675C30.7492 11.7176 30.4255 11.3563 30.4772 10.9471L31.7676 0.735443C31.811 0.392164 32.107 0.134492 32.4579 0.134492H33.0466Z" fill="white"/>
<path d="M52.7494 2.97563C51.9304 3.79939 51.5297 4.79127 51.5297 5.95126C51.5297 7.11125 51.9304 8.10312 52.7494 8.92689C53.5684 9.73384 54.5616 10.1373 55.7465 10.1373C56.9314 10.1373 57.9246 9.73384 58.7436 8.92689C59.5626 8.10312 59.9808 7.11125 59.9808 5.95126C59.9808 4.79127 59.5626 3.79939 58.7436 2.97563C57.9246 2.15187 56.9314 1.74839 55.7465 1.74839C54.5616 1.74839 53.5684 2.15187 52.7494 2.97563ZM49.6826 5.95126C49.6826 4.28692 50.275 2.89157 51.4425 1.73158C52.61 0.571589 54.0563 0 55.7465 0C57.4542 0 58.9004 0.571589 60.0679 1.73158C61.2528 2.89157 61.8453 4.28692 61.8453 5.95126C61.8453 7.59878 61.2528 8.99413 60.0679 10.1541C58.9004 11.3141 57.4542 11.8857 55.7465 11.8857C54.0563 11.8857 52.61 11.3141 51.4425 10.1541C50.275 8.99413 49.6826 7.59878 49.6826 5.95126Z" fill="white"/>
</g>
</svg>
