<svg width="42" height="42" viewBox="0 0 42 42" fill="none" xmlns="http://www.w3.org/2000/svg">
<g clip-path="url(#clip0_6_1029)">
<g clip-path="url(#clip1_6_1029)">
<g clip-path="url(#clip2_6_1029)">
<path d="M28.0078 3.74221L36.5506 12.201C37.2772 12.9192 37.6342 13.6458 37.6216 14.3808C37.609 15.1116 37.2982 15.7836 36.685 16.3884C36.0466 17.0226 35.3578 17.346 34.6186 17.3586C33.8794 17.3712 33.1486 17.0142 32.4178 16.296L23.6818 7.64401C22.6906 6.66121 21.733 5.96401 20.809 5.55661C19.8892 5.14921 18.919 5.08621 17.9026 5.36341C16.8862 5.64061 15.7942 6.35881 14.6266 7.51801C13.0138 9.11401 12.2452 10.6134 12.325 12.0162C12.4048 13.419 13.2028 14.868 14.7232 16.3758L23.5306 25.0992C24.2656 25.8258 24.6268 26.5524 24.6142 27.2748C24.6016 27.9972 24.2866 28.6692 23.665 29.2824C23.0434 29.8956 22.363 30.219 21.6154 30.2442C20.872 30.2694 20.1328 29.9166 19.3978 29.19L10.8634 20.7312C9.4732 19.3536 8.4694 18.0516 7.852 16.8252C7.2346 15.5988 7.0036 14.2086 7.1632 12.6588C7.306 11.3316 7.7344 10.0464 8.44 8.79901C9.1498 7.55161 10.162 6.27901 11.4766 4.97281C13.0432 3.41881 14.5384 2.23021 15.9664 1.40281C17.3944 0.575413 18.772 0.113413 20.1034 0.0168127C21.4348 -0.0797873 22.7494 0.184813 24.0514 0.810613C25.3492 1.43641 26.668 2.41081 28.012 3.74221H28.0078Z" fill="url(#paint0_linear_6_1029)"/>
<path d="M14.6141 37.8798L6.07132 29.421C5.34472 28.7028 4.98772 27.9762 5.00032 27.2412C5.01292 26.5062 5.32372 25.8384 5.93692 25.2336C6.57532 24.5994 7.26412 24.276 8.00332 24.2634C8.74252 24.2508 9.47332 24.6036 10.2041 25.326L18.9401 33.978C19.9355 34.9608 20.8889 35.658 21.8129 36.0654C22.7369 36.4728 23.7029 36.5358 24.7193 36.2586C25.7357 35.9814 26.8277 35.2632 27.9953 34.104C29.6081 32.508 30.3767 31.0086 30.2969 29.6058C30.2171 28.203 29.4191 26.7498 27.8987 25.2462L23.2073 20.6388C22.4723 19.9122 22.1111 19.1856 22.1237 18.4632C22.1363 17.7408 22.4513 17.0688 23.0729 16.4556C23.6945 15.8424 24.3749 15.519 25.1225 15.4938C25.8659 15.4686 26.6051 15.8214 27.3401 16.548L31.7627 20.8908C33.1529 22.2684 34.1567 23.5704 34.7741 24.7968C35.3915 26.0232 35.6225 27.4134 35.4629 28.9632C35.3201 30.2904 34.8917 31.5756 34.1861 32.823C33.4763 34.0704 32.4641 35.343 31.1495 36.6492C29.5829 38.2032 28.0877 39.3918 26.6597 40.2192C25.2317 41.0466 23.8541 41.5086 22.5227 41.6052C21.1913 41.7018 19.8767 41.4372 18.5747 40.8114C17.2769 40.1856 15.9539 39.2112 14.6141 37.8798Z" fill="url(#paint1_linear_6_1029)"/>
<path d="M19.9401 16.0524C21.6729 16.0524 23.0775 14.6477 23.0775 12.915C23.0775 11.1822 21.6729 9.77759 19.9401 9.77759C18.2074 9.77759 16.8027 11.1822 16.8027 12.915C16.8027 14.6477 18.2074 16.0524 19.9401 16.0524Z" fill="url(#paint2_radial_6_1029)"/>
</g>
</g>
</g>
<defs>
<linearGradient id="paint0_linear_6_1029" x1="35.1508" y1="8.6366" x2="8.6783" y2="20.4003" gradientUnits="userSpaceOnUse">
<stop stop-color="#070100"/>
<stop offset="0.36" stop-color="#77390D"/>
<stop offset="0.67" stop-color="#EA8101"/>
<stop offset="1" stop-color="#F4B852"/>
</linearGradient>
<linearGradient id="paint1_linear_6_1029" x1="8.20796" y1="33.2636" x2="38.8824" y2="24.1302" gradientUnits="userSpaceOnUse">
<stop stop-color="#070100"/>
<stop offset="0.37" stop-color="#77390D"/>
<stop offset="0.67" stop-color="#EA8101"/>
<stop offset="1" stop-color="#F4FB52"/>
</linearGradient>
<radialGradient id="paint2_radial_6_1029" cx="0" cy="0" r="1" gradientUnits="userSpaceOnUse" gradientTransform="translate(19.9359 12.9192) scale(3.1374)">
<stop stop-color="#F4B852"/>
<stop offset="0.33" stop-color="#EA8101"/>
<stop offset="0.64" stop-color="#77390D"/>
<stop offset="1" stop-color="#070100"/>
</radialGradient>
<clipPath id="clip0_6_1029">
<rect width="42" height="42" fill="white"/>
</clipPath>
<clipPath id="clip1_6_1029">
<rect width="42" height="42" fill="white"/>
</clipPath>
<clipPath id="clip2_6_1029">
<rect width="42" height="42" fill="white"/>
</clipPath>
</defs>
</svg>
